<svg width="59" height="55" viewBox="0 0 59 55" fill="none" xmlns="http://www.w3.org/2000/svg">
    <path d="M0.274564 28.4871C-2.069 11.2449 11.1237 1.79226 19.5459 0.971207C31.0459 -1.52873 50.3077 0.125731 56.5459 13.9711C62.6721 27.5678 56.5459 42.9711 44.0459 50.9711C32.6374 58.2725 3.20402 50.0398 0.274564 28.4871Z" fill="#CCEBF9"/>
    <path d="M2.33608 27.2218C-0.104765 9.12457 17.2741 3.83278 26.0459 2.97101C37.5459 1.84115 48.5459 6.47101 54.077 16.7513C61.4637 30.4805 50.3903 41.5703 39.2031 50.2311C28.0159 58.8919 5.38714 49.8433 2.33608 27.2218Z" stroke="#003F5A" stroke-width="2"/>
    <path d="M13.5 26.5001C28.5 28.5001 36.5 42.5291 30.5 45.0001C23.4429 47.9066 22.5 6.97119 47.5 3.47119" stroke="#FFC000" stroke-width="4" stroke-linecap="round" stroke-linejoin="round"/>
    </svg>
    