<svg width="345" height="28" viewBox="0 0 345 28" fill="none" xmlns="http://www.w3.org/2000/svg">
<path d="M10.4993 4.66666H17.4993C18.1182 4.66666 18.7117 4.91249 19.1493 5.35007C19.5868 5.78766 19.8327 6.38115 19.8327 6.99999V23.3333L13.9993 19.8333L8.16602 23.3333V6.99999C8.16602 6.38115 8.41185 5.78766 8.84943 5.35007C9.28702 4.91249 9.88051 4.66666 10.4993 4.66666Z" stroke="#003F5A" stroke-width="1.5" stroke-linecap="round" stroke-linejoin="round"/>
<path d="M52.166 11.6667V16.3333H55.666V24.5H60.3327V16.3333H63.8327L64.9993 11.6667H60.3327V9.33333C60.3327 9.02391 60.4556 8.72717 60.6744 8.50838C60.8932 8.28958 61.1899 8.16667 61.4993 8.16667H64.9993V3.5H61.4993C59.9523 3.5 58.4685 4.11458 57.3746 5.20854C56.2806 6.30251 55.666 7.78624 55.666 9.33333V11.6667H52.166Z" stroke="#003F5A" stroke-width="1.5" stroke-linecap="round" stroke-linejoin="round"/>
<path d="M110.167 5.83334H93.8333C93.2145 5.83334 92.621 6.07918 92.1834 6.51676C91.7458 6.95435 91.5 7.54784 91.5 8.16668V19.8333C91.5 20.4522 91.7458 21.0457 92.1834 21.4833C92.621 21.9208 93.2145 22.1667 93.8333 22.1667H110.167C110.786 22.1667 111.379 21.9208 111.817 21.4833C112.254 21.0457 112.5 20.4522 112.5 19.8333V8.16668C112.5 7.54784 112.254 6.95435 111.817 6.51676C111.379 6.07918 110.786 5.83334 110.167 5.83334V5.83334Z" stroke="#003F5A" stroke-width="1.5" stroke-linecap="round" stroke-linejoin="round"/>
<path d="M91.5 8.16666L102 15.1667L112.5 8.16666" stroke="#003F5A" stroke-width="1.5" stroke-linecap="round" stroke-linejoin="round"/>
<path d="M143.666 16.3291C144.046 16.7172 144.5 17.0254 145.001 17.2359C145.502 17.4463 146.039 17.5547 146.583 17.5547C147.126 17.5547 147.664 17.4463 148.165 17.2359C148.665 17.0254 149.119 16.7172 149.499 16.3291L154.166 11.6625C154.919 10.8847 155.336 9.84213 155.327 8.75966C155.318 7.67719 154.884 6.64155 154.119 5.8761C153.354 5.11065 152.318 4.67674 151.235 4.66795C150.153 4.65916 149.11 5.0762 148.333 5.82912L147.749 6.41245" stroke="#003F5A" stroke-width="1.5" stroke-linecap="round" stroke-linejoin="round"/>
<path d="M148.333 11.671C147.953 11.2833 147.499 10.9753 146.998 10.765C146.497 10.5547 145.96 10.4464 145.417 10.4464C144.873 10.4464 144.336 10.5547 143.835 10.765C143.334 10.9753 142.88 11.2833 142.5 11.671L137.833 16.3377C137.08 17.1155 136.663 18.158 136.672 19.2405C136.681 20.323 137.115 21.3586 137.88 22.1241C138.646 22.8895 139.681 23.3234 140.764 23.3322C141.846 23.341 142.889 22.924 143.667 22.171L144.25 21.5877" stroke="#003F5A" stroke-width="1.5" stroke-linecap="round" stroke-linejoin="round"/>
<path d="M195.833 19.8333H198.167C198.786 19.8333 199.379 19.5875 199.817 19.1499C200.254 18.7123 200.5 18.1188 200.5 17.5V12.8333C200.5 12.2145 200.254 11.621 199.817 11.1834C199.379 10.7458 198.786 10.5 198.167 10.5H181.833C181.214 10.5 180.621 10.7458 180.183 11.1834C179.746 11.621 179.5 12.2145 179.5 12.8333V17.5C179.5 18.1188 179.746 18.7123 180.183 19.1499C180.621 19.5875 181.214 19.8333 181.833 19.8333H184.167" stroke="#003F5A" stroke-width="1.5" stroke-linecap="round" stroke-linejoin="round"/>
<path d="M195.833 10.5V5.83333C195.833 5.21449 195.587 4.621 195.149 4.18342C194.712 3.74583 194.118 3.5 193.499 3.5H186.499C185.881 3.5 185.287 3.74583 184.849 4.18342C184.412 4.621 184.166 5.21449 184.166 5.83333V10.5" stroke="#003F5A" stroke-width="1.5" stroke-linecap="round" stroke-linejoin="round"/>
<path d="M193.499 15.1667H186.499C185.881 15.1667 185.287 15.4125 184.849 15.8501C184.412 16.2877 184.166 16.8812 184.166 17.5V22.1667C184.166 22.7855 184.412 23.379 184.849 23.8166C185.287 24.2542 185.881 24.5 186.499 24.5H193.499C194.118 24.5 194.712 24.2542 195.149 23.8166C195.587 23.379 195.833 22.7855 195.833 22.1667V17.5C195.833 16.8812 195.587 16.2877 195.149 15.8501C194.712 15.4125 194.118 15.1667 193.499 15.1667Z" stroke="#003F5A" stroke-width="1.5" stroke-linecap="round" stroke-linejoin="round"/>
</svg>
