<svg viewBox="0 0 120 16" fill="none" xmlns="http://www.w3.org/2000/svg">
    <path d="M5.7818 0.762878C8.90131 0.762878 10.7998 2.6641 10.7998 5.73199C10.7998 8.82046 8.87949 10.6137 5.7818 10.6137H3.68688V15.4521H0V0.762878H5.7818ZM3.68792 3.89558V7.47993H5.17182C6.17563 7.47993 6.96123 7.07046 6.96123 5.73199C6.96123 4.36986 6.17563 3.89558 5.17182 3.89558H3.68792Z" fill="#003F5A"/>
    <path d="M12.4821 7.24333V4.95425C14.0314 4.65075 15.6234 4.43573 16.9764 4.43573C19.7696 4.43573 21.4052 5.10445 21.4052 8.08489V15.4521H18.2421L17.9147 14.2855H17.8711C17.0855 15.3657 16.2126 15.6692 14.948 15.6692C12.8967 15.6692 11.8066 14.0921 11.8066 12.233C11.8066 9.42438 13.8797 8.86266 15.4281 8.86266H17.9158V8.23818C17.9158 7.5674 17.6539 7.24333 16.5628 7.24333H12.4821ZM17.9147 10.9367H16.5181C15.7762 10.9367 15.2961 11.2176 15.2961 11.9954C15.2961 12.8369 15.9071 13.0324 16.4963 13.0324C17.0419 13.0324 17.9147 12.7093 17.9147 11.6281V10.9367Z" fill="#003F5A"/>
    <path d="M26.8031 0.330811V3.5273H23.3125V0.330811H26.8031ZM26.8031 4.65178V15.4521H23.3125V4.65178H26.8031Z" fill="#003F5A"/>
    <path d="M33.3298 4.43677C34.7482 4.43677 35.6429 4.54376 37.1912 4.95528V7.24437H33.5043C32.6751 7.24437 32.326 7.52523 32.326 7.8709C32.326 8.21658 32.5224 8.45321 33.3734 8.62605C35.2283 8.94909 37.6713 9.42542 37.6713 12.1682C37.6713 14.7608 35.5764 15.6682 32.937 15.6682C31.5185 15.6682 30.0357 15.5602 28.4863 15.1497V12.8565H32.7406C33.5043 12.8565 33.8317 12.5355 33.8317 12.1651C33.8317 11.8174 33.6135 11.5828 32.7842 11.4295C30.9075 11.1065 28.5081 10.6518 28.5081 7.86679C28.5081 5.34211 30.7122 4.43677 33.3298 4.43677Z" fill="#003F5A"/>
    <path d="M53.1322 7.84829C52.7395 10.2454 51.9757 11.909 51.1028 13.0551L53.4378 15.4522H51.0373L49.8589 14.2649C48.4405 15.41 46.8704 15.6692 45.7138 15.6692C42.5288 15.6692 41.0449 14.0057 41.0449 11.7588C41.0449 9.92235 42.2233 8.73512 43.6636 7.84829C42.6379 6.61682 41.896 5.62402 41.896 4.26395C41.896 1.82261 43.9691 0.54895 46.6958 0.54895C47.8524 0.54895 48.267 0.655944 49.6625 0.936807V2.2547H46.7176C44.6882 2.2547 43.8381 3.07466 43.8381 4.37095C43.8381 5.40798 44.6674 6.35859 46.7831 8.58491L49.9244 11.8894C50.6009 11.0057 51.1901 9.70836 51.4738 7.84932L53.1322 7.84829ZM48.7034 13.1188L44.6892 8.94911C43.6417 9.55404 42.8343 10.3761 42.8343 11.6281C42.8343 12.6446 43.3362 14.2001 45.8447 14.2001C46.4557 14.2001 47.6123 14.0273 48.7034 13.1188Z" fill="#003F5A"/>
    <path d="M68.8995 15.4521H64.8624L64.0747 12.4295H60.126L59.3622 15.4521H55.3262L59.4495 0.654846H64.7315L68.8995 15.4521ZM60.7609 9.62085H63.4232L62.0931 4.71552H62.0713L60.7609 9.62085Z" fill="#003F5A"/>
    <path d="M70.0168 0.330811H73.5063V12.0602C73.5063 12.7299 73.7245 12.8585 74.9238 12.8585V15.5591C70.7349 15.7742 70.0137 15.0201 70.0137 12.0602V0.330811H70.0168Z" fill="#003F5A"/>
    <path d="M85.7595 4.65179V15.4521H82.5953L82.269 14.2865H82.2264C81.4398 15.2371 80.4796 15.6692 79.2171 15.6692C76.9455 15.6692 76.0508 14.2207 76.0508 12.2773V4.65179H79.5413V11.9542C79.5413 12.7742 80.2396 13.0334 80.8288 13.0334C81.3961 13.0334 82.269 12.6672 82.269 11.6291V4.65282L85.7595 4.65179Z" fill="#003F5A"/>
    <path d="M87.6758 15.4521V4.65179H90.84L91.1663 5.81947H91.2099C91.9737 4.86886 92.9557 4.43677 94.2203 4.43677C96.4898 4.43677 97.3845 5.90589 97.3845 7.84827V15.4521H93.894V8.17234C93.894 7.33078 93.1739 7.07153 92.6065 7.07153C92.0392 7.07153 91.1663 7.43881 91.1663 8.49847V15.4542H87.6758V15.4521Z" fill="#003F5A"/>
    <path d="M98.9766 10.053C98.9766 6.61783 100.418 4.43781 104.257 4.43781C108.12 4.43781 109.559 6.61783 109.559 10.053C109.559 13.5087 108.12 15.6692 104.257 15.6692C100.418 15.6692 98.9766 13.5087 98.9766 10.053ZM102.642 10.053C102.642 11.912 102.968 12.8822 104.257 12.8822C105.567 12.8822 105.893 11.912 105.893 10.053C105.893 8.19396 105.567 7.2238 104.257 7.2238C102.971 7.22174 102.642 8.19396 102.642 10.053Z" fill="#003F5A"/>
    <path d="M115.659 4.43677C117.074 4.43677 117.971 4.54376 119.519 4.95528V7.24437H115.834C115.003 7.24437 114.654 7.52523 114.654 7.8709C114.654 8.21658 114.849 8.45321 115.702 8.62605C117.556 8.94909 120.001 9.42542 120.001 12.1682C120.001 14.7608 117.906 15.6682 115.265 15.6682C113.847 15.6682 112.363 15.5602 110.814 15.1497V12.8565H115.07C115.834 12.8565 116.161 12.5355 116.161 12.1651C116.161 11.8174 115.943 11.5828 115.113 11.4295C113.236 11.1065 110.837 10.6518 110.837 7.86679C110.837 5.34211 113.041 4.43677 115.659 4.43677Z" fill="#003F5A"/>
    </svg>
    
        