<svg
  width="181"
  height="24"
  viewBox="0 0 181 24"
  fill="none"
  xmlns="http://www.w3.org/2000/svg"
>
    <path
    d="M9.17177 0.647949C13.8511 0.647949 16.6989 3.49981 16.6989 8.10166C16.6989 12.7344 13.8183 15.4242 9.17177 15.4242H6.02938V22.6819H0.499023V0.647949H9.17177ZM6.03094 5.34703V10.7236H8.2568C9.76253 10.7236 10.9409 10.1094 10.9409 8.10166C10.9409 6.05845 9.76253 5.34703 8.2568 5.34703H6.03094Z"
    fill="#003F5A"
  />
    <path
    d="M19.2231 10.3691V6.93549C21.5472 6.48025 23.9352 6.15771 25.9646 6.15771C30.1545 6.15771 32.6079 7.1608 32.6079 11.6315V22.6824H27.8631L27.3722 20.9324H27.3067C26.1283 22.5528 24.819 23.008 22.922 23.008C19.8451 23.008 18.21 20.6423 18.21 17.8537C18.21 13.6407 21.3196 12.7981 23.6421 12.7981H27.3737V11.8614C27.3737 10.8552 26.9809 10.3691 25.3443 10.3691H19.2231ZM27.3722 15.9093H25.2772C24.1643 15.9093 23.4442 16.3306 23.4442 17.4972C23.4442 18.7596 24.3607 19.0528 25.2445 19.0528C26.0628 19.0528 27.3722 18.5682 27.3722 16.9463V15.9093Z"
    fill="#003F5A"
  />
    <path
    d="M40.7037 -0.000488281V4.79427H35.4678V-0.000488281H40.7037ZM40.7037 6.481V22.6816H35.4678V6.481H40.7037Z"
    fill="#003F5A"
  />
    <path
    d="M50.4908 6.15967C52.6185 6.15967 53.9605 6.32016 56.283 6.93745V10.3711H50.7527C49.5088 10.3711 48.9851 10.7924 48.9851 11.3109C48.9851 11.8294 49.2797 12.1844 50.5563 12.4436C53.3386 12.9282 57.0031 13.6427 57.0031 17.7569C57.0031 21.6458 53.8608 23.0069 49.9016 23.0069C47.7739 23.0069 45.5496 22.8449 43.2256 22.2291V18.7893H49.607C50.7527 18.7893 51.2437 18.3078 51.2437 17.7523C51.2437 17.2307 50.9163 16.8788 49.6725 16.6489C46.8574 16.1643 43.2583 15.4822 43.2583 11.3047C43.2583 7.51769 46.5644 6.15967 50.4908 6.15967Z"
    fill="#003F5A"
  />
    <path
    d="M80.1965 11.2767C79.6073 14.8724 78.4617 17.3678 77.1523 19.0869L80.6548 22.6826H77.0541L75.2865 20.9017C73.1589 22.6193 70.8036 23.0082 69.0688 23.0082C64.2913 23.0082 62.0654 20.5128 62.0654 17.1425C62.0654 14.3878 63.833 12.607 65.9934 11.2767C64.455 9.42949 63.342 7.94029 63.342 5.90017C63.342 2.23813 66.4517 0.327637 70.5418 0.327637C72.2766 0.327637 72.8986 0.488129 74.9919 0.909425V2.88628H70.5745C67.5303 2.88628 66.2553 4.11622 66.2553 6.06066C66.2553 7.61622 67.4991 9.04214 70.6727 12.3817L75.3847 17.3384C76.3995 16.0128 77.2833 14.0668 77.7088 11.2783L80.1965 11.2767ZM73.5532 19.1826L67.5319 12.9279C65.9607 13.8354 64.7496 15.0684 64.7496 16.9465C64.7496 18.4712 65.5024 20.8045 69.2652 20.8045C70.1817 20.8045 71.9166 20.5452 73.5532 19.1826Z"
    fill="#003F5A"
  />
    <path
    d="M103.847 22.6818H97.7917L96.6102 18.1479H90.6871L89.5414 22.6818H83.4873L89.6723 0.48584H97.5953L103.847 22.6818ZM91.6394 13.9349H95.6329L93.6377 6.57689H93.605L91.6394 13.9349Z"
    fill="#003F5A"
  />
    <path
    d="M105.523 -0.000488281H110.758V17.5937C110.758 18.5983 111.085 18.7912 112.884 18.7912V22.8421C106.6 23.1647 105.519 22.0335 105.519 17.5937V-0.000488281H105.523Z"
    fill="#003F5A"
  />
    <path
    d="M129.14 6.47998V22.6806H124.394L123.905 20.9321H123.841C122.661 22.3581 121.22 23.0062 119.327 23.0062C115.919 23.0062 114.577 20.8334 114.577 17.9182V6.47998H119.813V17.4337C119.813 18.6636 120.86 19.0525 121.744 19.0525C122.595 19.0525 123.905 18.5031 123.905 16.946V6.48152L129.14 6.47998Z"
    fill="#003F5A"
  />
    <path
    d="M132.015 22.6809V6.48024H136.761L137.25 8.23179H137.316C138.462 6.80586 139.935 6.15771 141.831 6.15771C145.236 6.15771 146.578 8.36142 146.578 11.275V22.6809H141.342V11.7611C141.342 10.4988 140.262 10.1099 139.411 10.1099C138.56 10.1099 137.25 10.6608 137.25 12.2503V22.6839H132.015V22.6809V22.6809Z"
    fill="#003F5A"
  />
    <path
    d="M148.964 14.5825C148.964 9.42973 151.126 6.15967 156.885 6.15967C162.679 6.15967 164.838 9.42973 164.838 14.5825C164.838 19.7662 162.679 23.0069 156.885 23.0069C151.126 23.0069 148.964 19.7662 148.964 14.5825ZM154.462 14.5825C154.462 17.3711 154.951 18.8263 156.885 18.8263C158.849 18.8263 159.339 17.3711 159.339 14.5825C159.339 11.7939 158.849 10.3387 156.885 10.3387C154.956 10.3356 154.462 11.7939 154.462 14.5825Z"
    fill="#003F5A"
  />
    <path
    d="M173.988 6.15967C176.111 6.15967 177.457 6.32016 179.779 6.93745V10.3711H174.25C173.005 10.3711 172.481 10.7924 172.481 11.3109C172.481 11.8294 172.774 12.1844 174.052 12.4436C176.835 12.9282 180.501 13.6427 180.501 17.7569C180.501 21.6458 177.358 23.0069 173.398 23.0069C171.27 23.0069 169.044 22.8449 166.722 22.2291V18.7893H173.105C174.25 18.7893 174.741 18.3078 174.741 17.7523C174.741 17.2307 174.414 16.8788 173.17 16.6489C170.354 16.1643 166.756 15.4822 166.756 11.3047C166.756 7.51769 170.062 6.15967 173.988 6.15967Z"
    fill="#003F5A"
  />
    </svg>
