<svg width="180" height="24" viewBox="0 0 180 24" fill="none" xmlns="http://www.w3.org/2000/svg">
    <path d="M8.67267 1.05103C13.3519 1.05103 16.1997 3.9274 16.1997 8.56883C16.1997 13.2414 13.3192 15.9543 8.67267 15.9543H5.5303V23.2745H0V1.05103H8.67267ZM5.53187 5.79051V11.2133H7.7577C9.26342 11.2133 10.4418 10.5938 10.4418 8.56883C10.4418 6.50805 9.26342 5.79051 7.7577 5.79051H5.53187Z" fill="black"/>
    <path d="M18.7241 10.8553V7.39213C21.0481 6.93297 23.4361 6.60767 25.4655 6.60767C29.6553 6.60767 32.1088 7.61938 32.1088 12.1285V23.2745H27.364L26.873 21.5094H26.8076C25.6292 23.1437 24.3199 23.6029 22.4229 23.6029C19.346 23.6029 17.7109 21.2168 17.7109 18.4042C17.7109 14.155 20.8206 13.3052 23.143 13.3052H26.8746V12.3604C26.8746 11.3456 26.4818 10.8553 24.8452 10.8553H18.7241ZM26.873 16.4431H24.7781C23.6652 16.4431 22.9451 16.868 22.9451 18.0447C22.9451 19.3179 23.8616 19.6136 24.7454 19.6136C25.5637 19.6136 26.873 19.1249 26.873 17.489V16.4431Z" fill="black"/>
    <path d="M40.2026 0.397217V5.2332H34.9668V0.397217H40.2026ZM40.2026 6.93444V23.2744H34.9668V6.93444H40.2026Z" fill="black"/>
    <path d="M49.9937 6.60913C52.1213 6.60913 53.4633 6.771 55.7858 7.3936V10.8568H50.2555C49.0117 10.8568 48.4879 11.2817 48.4879 11.8047C48.4879 12.3276 48.7825 12.6856 50.0591 12.9471C52.8414 13.4359 56.5059 14.1565 56.5059 18.3061C56.5059 22.2284 53.3636 23.6012 49.4045 23.6012C47.2768 23.6012 45.0526 23.4378 42.7285 22.8168V19.3474H49.1099C50.2555 19.3474 50.7465 18.8617 50.7465 18.3014C50.7465 17.7753 50.4192 17.4204 49.1753 17.1885C46.3603 16.6998 42.7612 16.0118 42.7612 11.7984C42.7612 7.97883 46.0673 6.60913 49.9937 6.60913Z" fill="black"/>
    <path d="M79.6973 11.7705C79.1081 15.3971 77.9625 17.9139 76.6532 19.6479L80.1556 23.2745H76.555L74.7874 21.4783C72.6597 23.2106 70.3045 23.6029 68.5697 23.6029C63.7922 23.6029 61.5664 21.0861 61.5664 17.6867C61.5664 14.9084 63.334 13.1122 65.4944 11.7705C63.9559 9.90741 62.843 8.40541 62.843 6.34774C62.843 2.65422 65.9526 0.727295 70.0427 0.727295C71.7775 0.727295 72.3994 0.889167 74.4928 1.31409V3.30794H70.0754C67.0312 3.30794 65.7562 4.54845 65.7562 6.50962C65.7562 8.07855 67.0001 9.51674 70.1736 12.885L74.8856 17.8844C75.9003 16.5474 76.7841 14.5846 77.2096 11.7721L79.6973 11.7705ZM73.0541 19.7444L67.0328 13.436C65.4616 14.3512 64.2505 15.5948 64.2505 17.489C64.2505 19.0268 65.0034 21.3802 68.7661 21.3802C69.6826 21.3802 71.4175 21.1187 73.0541 19.7444Z" fill="black"/>
    <path d="M103.348 23.2743H97.2926L96.111 18.7014H90.188L89.0423 23.2743H82.9883L89.1732 0.887451H97.0962L103.348 23.2743ZM91.1403 14.4522H95.1337L93.1386 7.03088H93.1059L91.1403 14.4522Z" fill="black"/>
    <path d="M105.024 0.397217H110.258V18.1427C110.258 19.1559 110.586 19.3505 112.385 19.3505V23.4363C106.101 23.7616 105.02 22.6207 105.02 18.1427V0.397217H105.024Z" fill="black"/>
    <path d="M128.639 6.93433V23.2742H123.893L123.404 21.5108H123.34C122.16 22.9489 120.719 23.6027 118.826 23.6027C115.418 23.6027 114.076 21.4111 114.076 18.4709V6.93433H119.312V17.9822C119.312 19.2227 120.359 19.615 121.243 19.615C122.094 19.615 123.404 19.0609 123.404 17.4904V6.93588L128.639 6.93433Z" fill="black"/>
    <path d="M131.514 23.2744V6.93443H136.26L136.749 8.70104H136.815C137.96 7.26285 139.433 6.60913 141.33 6.60913C144.735 6.60913 146.077 8.83178 146.077 11.7704V23.2744H140.841V12.2607C140.841 10.9875 139.761 10.5953 138.91 10.5953C138.059 10.5953 136.749 11.1509 136.749 12.7541V23.2775H131.514V23.2744V23.2744Z" fill="black"/>
    <path d="M148.465 15.1059C148.465 9.90878 150.627 6.6106 156.386 6.6106C162.18 6.6106 164.339 9.90878 164.339 15.1059C164.339 20.3341 162.18 23.6027 156.386 23.6027C150.627 23.6027 148.465 20.3341 148.465 15.1059ZM153.962 15.1059C153.962 17.9184 154.452 19.3862 156.386 19.3862C158.35 19.3862 158.84 17.9184 158.84 15.1059C158.84 12.2933 158.35 10.8255 156.386 10.8255C154.457 10.8224 153.962 12.2933 153.962 15.1059Z" fill="black"/>
    <path d="M173.487 6.60913C175.61 6.60913 176.956 6.771 179.278 7.3936V10.8568H173.749C172.504 10.8568 171.98 11.2817 171.98 11.8047C171.98 12.3276 172.273 12.6856 173.551 12.9471C176.334 13.4359 180 14.1565 180 18.3061C180 22.2284 176.857 23.6012 172.897 23.6012C170.769 23.6012 168.543 23.4378 166.221 22.8168V19.3474H172.604C173.749 19.3474 174.24 18.8617 174.24 18.3014C174.24 17.7753 173.913 17.4204 172.669 17.1885C169.853 16.6998 166.255 16.0118 166.255 11.7984C166.255 7.97883 169.561 6.60913 173.487 6.60913Z" fill="black"/>
    </svg>
    