<svg width="112" height="112" viewBox="0 0 112 112" fill="none" xmlns="http://www.w3.org/2000/svg">
    <g filter="url(#filter0_d_290_2672)">
    <path d="M56 104C48.8933 104 42.1767 102.635 35.85 99.905C29.5233 97.175 23.9983 93.4483 19.275 88.725C14.5517 84.0017 10.825 78.4767 8.095 72.15C5.365 65.8233 4 59.1067 4 52C4 44.8933 5.365 38.1767 8.095 31.85C10.825 25.5233 14.5517 19.9983 19.275 15.275C23.9983 10.5517 29.5233 6.825 35.85 4.095C42.1767 1.365 48.8933 0 56 0C63.1067 0 69.8233 1.365 76.15 4.095C82.4767 6.825 88.0017 10.5517 92.725 15.275C97.4483 19.9983 101.175 25.5233 103.905 31.85C106.635 38.1767 108 44.8933 108 52C108 59.1067 106.635 65.8233 103.905 72.15C101.175 78.4767 97.4483 84.0017 92.725 88.725C88.0017 93.4483 82.4767 97.175 76.15 99.905C69.8233 102.635 63.1067 104 56 104Z" fill="#3B3D3D" fill-opacity="0.85" shape-rendering="crispEdges"/>
    <path d="M78.0993 52.0017L43.3893 74.1017V52.0017V29.9017L78.0993 52.0017Z" fill="white" fill-opacity="0.85" shape-rendering="crispEdges"/>
    </g>
    <defs>
    <filter id="filter0_d_290_2672" x="0" y="0" width="112" height="112" filterUnits="userSpaceOnUse" color-interpolation-filters="sRGB">
    <feFlood flood-opacity="0" result="BackgroundImageFix"/>
    <feColorMatrix in="SourceAlpha" type="matrix" values="0 0 0 0 0 0 0 0 0 0 0 0 0 0 0 0 0 0 127 0" result="hardAlpha"/>
    <feOffset dy="4"/>
    <feGaussianBlur stdDeviation="2"/>
    <feComposite in2="hardAlpha" operator="out"/>
    <feColorMatrix type="matrix" values="0 0 0 0 0.231373 0 0 0 0 0.239216 0 0 0 0 0.239216 0 0 0 0.65 0"/>
    <feBlend mode="normal" in2="BackgroundImageFix" result="effect1_dropShadow_290_2672"/>
    <feBlend mode="normal" in="SourceGraphic" in2="effect1_dropShadow_290_2672" result="shape"/>
    </filter>
    </defs>
    </svg>
    