<svg width="29" height="29" viewBox="0 0 29 29" fill="none" xmlns="http://www.w3.org/2000/svg">
<path d="M19.166 5.16699H9.83268C8.59501 5.16699 7.40802 5.65866 6.53285 6.53383C5.65768 7.409 5.16602 8.59598 5.16602 9.83366V19.167C5.16602 20.4047 5.65768 21.5917 6.53285 22.4668C7.40802 23.342 8.59501 23.8337 9.83268 23.8337H19.166C20.4037 23.8337 21.5907 23.342 22.4658 22.4668C23.341 21.5917 23.8327 20.4047 23.8327 19.167V9.83366C23.8327 8.59598 23.341 7.409 22.4658 6.53383C21.5907 5.65866 20.4037 5.16699 19.166 5.16699Z" stroke="#FCF7E8" stroke-width="1.5" stroke-linecap="round" stroke-linejoin="round"/>
<path d="M14.5 18C15.4283 18 16.3185 17.6313 16.9749 16.9749C17.6313 16.3185 18 15.4283 18 14.5C18 13.5717 17.6313 12.6815 16.9749 12.0251C16.3185 11.3687 15.4283 11 14.5 11C13.5717 11 12.6815 11.3687 12.0251 12.0251C11.3687 12.6815 11 13.5717 11 14.5C11 15.4283 11.3687 16.3185 12.0251 16.9749C12.6815 17.6313 13.5717 18 14.5 18V18Z" stroke="#FCF7E8" stroke-width="1.5" stroke-linecap="round" stroke-linejoin="round"/>
<path d="M19.75 9.25V9.251" stroke="#FCF7E8" stroke-width="1.5" stroke-linecap="round" stroke-linejoin="round"/>
</svg>
