<svg width="29" height="29" viewBox="0 0 29 29" fill="none" xmlns="http://www.w3.org/2000/svg">
<path d="M4 24.9989L5.925 20.5655C4.45227 18.4749 3.79311 15.9187 4.07122 13.3767C4.34933 10.8346 5.54558 8.48136 7.43549 6.75864C9.3254 5.03592 11.779 4.06211 14.3359 4.01998C16.8928 3.97785 19.3772 4.87028 21.3229 6.5298C23.2685 8.18932 24.5417 10.5018 24.9034 13.0334C25.2651 15.5649 24.6905 18.1414 23.2875 20.2794C21.8844 22.4174 19.7494 23.9699 17.283 24.6455C14.8166 25.3211 12.1884 25.0734 9.89167 23.9489L4 24.9989" stroke="#FCF7E8" stroke-width="1.5" stroke-linecap="round" stroke-linejoin="round"/>
<path d="M11 12.167C11 13.7141 11.6146 15.1978 12.7085 16.2918C13.8025 17.3857 15.2862 18.0003 16.8333 18.0003H18C18.1547 18.0003 18.3031 17.9389 18.4125 17.8295C18.5219 17.7201 18.5833 17.5717 18.5833 17.417C18.5833 17.2623 18.5219 17.1139 18.4125 17.0045C18.3031 16.8951 18.1547 16.8337 18 16.8337H16.8333C16.6786 16.8337 16.5303 16.8951 16.4209 17.0045C16.3115 17.1139 16.25 17.2623 16.25 17.417C16.25 17.5717 16.3115 17.7201 16.4209 17.8295C16.5303 17.9389 16.6786 18.0003 16.8333 18.0003M11 12.167C11 12.3217 11.0615 12.4701 11.1709 12.5795C11.2803 12.6889 11.4286 12.7503 11.5833 12.7503C11.738 12.7503 11.8864 12.6889 11.9958 12.5795C12.1052 12.4701 12.1667 12.3217 12.1667 12.167V11.0003C12.1667 10.8456 12.1052 10.6972 11.9958 10.5878C11.8864 10.4784 11.738 10.417 11.5833 10.417C11.4286 10.417 11.2803 10.4784 11.1709 10.5878C11.0615 10.6972 11 10.8456 11 11.0003V12.167Z" stroke="#FCF7E8" stroke-width="1.5" stroke-linecap="round" stroke-linejoin="round"/>
</svg>
