<svg width="464" height="52" viewBox="0 0 464 52" fill="none" xmlns="http://www.w3.org/2000/svg">
    <path fill-rule="evenodd" clip-rule="evenodd" d="M-6.79024e-06 0C6.38658 25.8184 21.7229 43.0503 55.7619 46.1961C76.6848 49.4615 91.8958 46.3701 108.276 43.0411C121.01 40.4531 134.45 37.7215 151.83 37.7215C172.129 37.7215 188.427 41.4477 204.371 45.093C219.639 48.5836 234.582 52.0001 252.404 52.0001C291.677 52.0001 314.553 45.7523 334.836 40.2126C337.97 39.3568 341.042 38.5179 344.102 37.7215C364.241 32.4815 383.567 35.9508 400.133 38.9247C416.251 41.818 429.756 44.2424 438.857 37.7215C450.28 35.2808 458.427 21.4875 463.922 0H-6.79024e-06Z" fill="#CCEBF9"/>
    </svg>
    