<svg width="211" height="198" viewBox="0 0 211 198" fill="none" xmlns="http://www.w3.org/2000/svg">
    <path d="M1.52405 98.0714C-8.07595 28.0714 58.524 3.90474 93.024 0.571405C141.851 -4.14613 191.557 24.8283 205.088 71.5714C230.851 160.571 156.261 197.071 126.851 197.071C62.6133 197.071 13.524 185.571 1.52405 98.0714Z" fill="#CCEBF9"/>
    <path d="M11.5005 103.571C1.90049 33.5714 64.0003 12.4048 98.5003 9.07143C147.327 4.35389 189.469 10.8283 203 57.5714C228.763 146.571 159.817 183.713 129.5 191.071C78 203.571 23.5005 191.071 11.5005 103.571Z" stroke="#003F5A" stroke-width="2"/>
    <path d="M105.109 67.336L104.304 41.1319L126.781 50.2128L141.521 33.5714L151.438 56.6698L173.797 57.1228L159.847 70.9886L169.051 90.3284L145.762 90.526L144.784 108.919L129.357 99.2671L103.189 111.189L109.749 83.2522L90.0625 78.2407L105.109 67.336Z" fill="#E0AE16"/>
    <path d="M40.3506 74.5038L47.9111 149.23L125.398 147.485L127.723 74.5038H40.3506Z" fill="#009DE0"/>
    <path d="M90.0625 78.2407L109.749 83.2522L103.189 111.189L126.899 100.387L127.723 74.5038H95.2185L90.0625 78.2407Z" fill="#339648"/>
    <path d="M151.407 172.555L147.639 158.482C149.405 155.056 150.402 151.167 150.402 147.047C150.402 133.237 139.206 122.043 125.398 122.043C111.59 122.043 100.394 133.239 100.394 147.047C100.394 160.855 111.59 172.051 125.398 172.051C129.456 172.051 133.286 171.085 136.674 169.37L151.41 172.552L151.407 172.555Z" fill="white"/>
    <path d="M151.407 173.571C151.335 173.571 151.262 173.564 151.192 173.547L136.806 170.439C133.238 172.184 129.402 173.068 125.398 173.068C111.048 173.068 99.3745 161.395 99.3745 147.044C99.3745 132.694 111.048 121.021 125.398 121.021C139.748 121.021 151.421 132.694 151.421 147.044C151.421 151.104 150.515 154.988 148.725 158.593L152.392 172.29C152.484 172.632 152.392 172.998 152.146 173.256C151.951 173.461 151.684 173.571 151.409 173.571H151.407ZM136.671 168.353C136.743 168.353 136.816 168.36 136.886 168.377L149.993 171.208L146.656 158.747C146.591 158.503 146.617 158.243 146.735 158.017C148.494 154.603 149.385 150.914 149.385 147.047C149.385 133.82 138.625 123.059 125.398 123.059C112.171 123.059 101.41 133.82 101.41 147.047C101.41 160.274 112.171 171.034 125.398 171.034C129.202 171.034 132.84 170.169 136.213 168.461C136.358 168.389 136.515 168.353 136.674 168.353H136.671Z" fill="black"/>
    <path d="M69.7036 58.578L72.3226 84.6737L87.4316 83.8015L90.7734 57.7058L69.7036 58.578Z" fill="#E04816"/>
    <path d="M64.0853 135.87C63.7721 135.87 63.4613 135.725 63.2637 135.453L60.3556 131.48C60.0231 131.027 60.1219 130.389 60.5749 130.059C61.0278 129.726 61.6663 129.825 61.9964 130.278L64.9045 134.251C65.2369 134.704 65.1381 135.342 64.6852 135.672C64.5045 135.805 64.2925 135.87 64.0853 135.87Z" fill="black"/>
    <path d="M111.448 90.5308C111.342 90.5308 111.234 90.514 111.125 90.4778C110.593 90.2995 110.304 89.7237 110.482 89.1912L111.79 85.2664C111.968 84.7339 112.544 84.4448 113.077 84.6231C113.609 84.8014 113.898 85.3772 113.72 85.9097L112.412 89.8345C112.27 90.261 111.872 90.5308 111.446 90.5308H111.448Z" fill="black"/>
    <path d="M62.0973 103.927C61.2901 103.927 60.6926 103.5 60.3071 102.647C60.1264 102.243 59.9481 102.002 59.7674 101.92C59.6325 101.857 59.2783 101.826 58.7049 101.826C57.5749 101.826 56.2666 102.705 54.7873 104.464C52.7129 106.924 51.6768 109.227 51.6768 111.372C51.6768 112.35 52.0045 113.188 52.6599 113.889C53.3152 114.591 54.1007 114.94 55.0162 114.94C55.9318 114.94 56.8064 114.706 57.7219 114.239C58.0448 114.068 58.7266 113.629 59.7698 112.918C60.471 112.451 60.9986 112.217 61.3576 112.217C61.8973 112.217 62.3551 112.415 62.7309 112.81C63.0803 113.179 63.2562 113.6 63.2562 114.075C63.2562 114.605 63.0225 115.068 62.555 115.463C60.0855 117.544 57.5725 118.588 55.0138 118.588C52.9948 118.588 51.2889 117.853 49.8963 116.378C48.5688 114.959 47.9038 113.29 47.9038 111.369C47.9038 108.362 49.2193 105.293 51.8503 102.158C54.0862 99.5008 56.3702 98.1733 58.7049 98.1733C59.1 98.1733 59.4566 98.1877 59.7747 98.2142C60.0927 98.2407 60.3746 98.2817 60.6155 98.3347C61.0107 97.9492 61.4853 97.7565 62.0418 97.7565C62.9574 97.7565 63.5236 98.2817 63.738 99.3322C63.8898 100.086 63.9669 100.966 63.9669 101.97C63.9669 102.419 63.8368 102.828 63.5766 103.197C63.2345 103.681 62.743 103.924 62.0948 103.924L62.0973 103.927Z" fill="#E0AE16"/>
    <path d="M74.8767 119.089C72.2192 119.089 69.9568 118.325 68.0896 116.8C66.0971 115.166 65.0996 113.051 65.0996 110.459C65.0996 107.406 66.0561 104.623 67.9667 102.11C70.1111 99.2816 72.8143 97.8697 76.0718 97.8697C79.3292 97.8697 81.5531 98.5877 83.1143 100.024C84.6756 101.46 85.4562 103.618 85.4562 106.5C85.4562 109.553 84.5768 112.316 82.8179 114.795C80.7893 117.66 78.1414 119.091 74.8743 119.091L74.8767 119.089Z" fill="white"/>
    <path d="M96.8928 119.089C94.2353 119.089 91.9729 118.325 90.1057 116.8C88.1132 115.166 87.1157 113.051 87.1157 110.459C87.1157 107.406 88.0722 104.623 89.9828 102.11C92.1271 99.2816 94.8304 97.8697 98.0879 97.8697C101.345 97.8697 103.569 98.5877 105.13 100.024C106.692 101.46 107.472 103.618 107.472 106.5C107.472 109.553 106.593 112.316 104.834 114.795C102.805 117.66 100.158 119.091 96.8904 119.091L96.8928 119.089Z" fill="white"/>
    <path d="M122.355 117.756C121.295 118.224 119.657 118.641 117.44 119.009C115.411 119.349 113.746 119.52 112.445 119.52C110.246 119.52 109.147 118.554 109.147 116.624C109.147 116.776 109.236 115.354 109.417 112.355C109.651 108.459 109.766 104.122 109.766 99.3466C109.766 98.8359 109.944 98.3998 110.299 98.0408C110.653 97.6818 111.099 97.5011 111.638 97.5011C112.178 97.5011 112.626 97.6818 112.985 98.0408C113.344 98.3998 113.525 98.8359 113.525 99.3466C113.525 104.132 113.404 108.538 113.161 112.569C113.079 113.287 112.995 114.386 112.906 115.868C115.033 115.831 117.763 115.311 121.093 114.306C121.3 114.244 121.497 114.212 121.685 114.212C122.251 114.212 122.709 114.42 123.059 114.832C123.372 115.2 123.531 115.612 123.531 116.07C123.531 116.841 123.14 117.402 122.36 117.754L122.355 117.756Z" fill="#E0AE16"/>
    <path d="M77.2711 108.061C77.2711 108.765 77.047 109.545 76.6205 110.109C76.2712 110.569 75.7339 110.846 75.1533 110.765C74.8569 110.724 74.5148 110.497 74.3558 110.247C73.5607 108.998 73.7173 107.273 74.7581 106.211C75.2954 105.662 76.2808 105.589 76.7314 106.31C77.059 106.828 77.2735 107.444 77.2735 108.061H77.2711Z" fill="black"/>
    <path d="M99.6251 108.695C99.6251 109.398 99.401 110.179 98.9745 110.743C98.6252 111.203 98.0879 111.48 97.5073 111.398C97.2109 111.357 96.8688 111.131 96.7098 110.88C95.9147 109.632 96.0713 107.907 97.1121 106.845C97.6494 106.295 98.6348 106.223 99.0854 106.943C99.413 107.461 99.6275 108.078 99.6275 108.695H99.6251Z" fill="black"/>
    <path d="M85.444 129.384C85.4078 129.384 85.3693 129.384 85.3331 129.384C80.3699 129.324 77.8256 125.124 77.1727 122.912C77.0137 122.373 77.3221 121.807 77.8617 121.648C78.4014 121.489 78.9652 121.797 79.1242 122.334C79.1869 122.541 80.6735 127.293 85.3572 127.35C85.3861 127.35 85.4126 127.35 85.4415 127.35C90.3663 127.35 90.9252 122.033 90.9469 121.804C90.9999 121.245 91.4963 120.833 92.0528 120.886C92.6118 120.937 93.0238 121.431 92.9732 121.987C92.9659 122.062 92.7973 123.857 91.8046 125.652C90.453 128.095 88.2557 129.384 85.444 129.384Z" fill="white"/>
    <path d="M123.659 164.963C123.659 164.963 108.176 139.014 116.026 134.434C123.876 129.854 126.492 142.284 126.492 142.284C126.492 142.284 129.981 131.381 137.178 136.395C144.374 141.411 123.659 164.96 123.659 164.96V164.963Z" fill="#E04816"/>
    <path d="M59.5412 139.489C59.1918 139.489 58.8497 139.308 58.6617 138.983L56.6258 135.494C56.3415 135.007 56.5078 134.386 56.9921 134.101C57.4788 133.82 58.1004 133.983 58.3847 134.468L60.4206 137.956C60.7049 138.443 60.541 139.065 60.0543 139.349C59.8929 139.443 59.717 139.489 59.5412 139.489Z" fill="black"/>
    <path d="M134.544 47.9648C134.132 47.9648 133.746 47.7143 133.592 47.3071L129.52 36.5494C129.32 36.0241 129.585 35.4362 130.113 35.2363C130.638 35.0363 131.226 35.3013 131.426 35.829L135.498 46.5867C135.698 47.1119 135.433 47.6998 134.905 47.8974C134.787 47.9432 134.664 47.9624 134.546 47.9624L134.544 47.9648Z" fill="black"/>
    <path d="M156.932 79.0768C156.38 79.0768 155.927 78.6359 155.915 78.0817C155.903 77.5203 156.348 77.0553 156.91 77.0409L169.995 76.7493C170.559 76.7397 171.021 77.183 171.036 77.7444C171.048 78.3058 170.602 78.7708 170.041 78.7852L156.956 79.0768C156.956 79.0768 156.941 79.0768 156.932 79.0768Z" fill="#0B30E0"/>
    </svg>
    