<svg width="134" height="140" viewBox="0 0 134 140" fill="none" xmlns="http://www.w3.org/2000/svg">
    <path d="M65.0351 33.7646L64.2304 7.56054L86.7072 16.6414L101.448 0L111.365 23.0984L133.723 23.5514L119.773 37.4172L128.977 56.757L105.688 56.9546L104.71 75.3475L89.2828 65.6957L63.1149 77.6172L69.6755 49.6808L49.9888 44.6693L65.0351 33.7646Z" fill="#E0AE16"/>
    <path d="M83.6693 35.9403C84.5101 35.1114 85.4112 34.4922 86.3726 34.0851C87.3339 33.6755 88.3603 33.4731 89.4541 33.4731C91.4225 33.4731 92.8392 34.0248 93.7018 35.1307C94.3451 35.9595 94.7378 37.2317 94.8751 38.9471C94.933 40.3638 94.9956 41.7853 95.0655 43.2117C95.2486 45.0645 95.3643 46.192 95.41 46.5968C95.5715 47.8738 95.7666 48.9917 95.9979 49.9458C96.0557 50.1867 96.0846 50.4012 96.0846 50.5843C96.0846 51.23 95.8389 51.76 95.3498 52.1817C94.8607 52.6009 94.2873 52.8129 93.6319 52.8129C92.4682 52.8129 91.7141 52.2371 91.3696 51.0854C91.0925 50.153 90.8395 48.8399 90.6106 47.1486C90.4034 45.5247 90.2998 44.1899 90.2998 43.1418C90.2998 42.8551 90.3143 42.419 90.3432 41.8383C90.3721 41.2577 90.3865 40.8216 90.3865 40.5349C90.3865 39.6844 90.3745 39.1881 90.3528 39.0507C90.2492 38.4171 89.9504 38.1015 89.4541 38.1015C88.1772 38.1015 87.0207 38.6893 85.9847 39.8627C85.4546 40.4506 84.7294 41.5661 83.809 43.2117C83.809 47.3798 83.6066 49.888 83.2043 50.7409C82.7561 51.6853 82.0406 52.1576 81.0624 52.1576C80.4167 52.1576 79.8456 51.9407 79.3445 51.5095C78.8433 51.0782 78.5928 50.5457 78.5928 49.9121C78.5928 49.6928 78.6554 49.3892 78.7831 48.9965C78.8626 48.7435 78.9325 47.1895 78.9903 44.3344C78.9325 42.0215 78.9445 38.1713 79.0241 32.784L79.0578 32.2154C79.1277 30.8565 79.1614 29.9482 79.1614 29.488C79.1614 29.1314 79.106 28.6038 78.9976 27.9075C78.8891 27.2112 78.8337 26.6835 78.8337 26.327C78.8337 25.6716 79.0698 25.1319 79.5421 24.7127C80.0143 24.2935 80.5829 24.0815 81.2503 24.0815C82.3899 24.0815 83.1561 24.691 83.5464 25.9126C83.7657 26.604 83.8741 27.6617 83.8741 29.0905C83.8741 30.2422 83.8403 31.4107 83.7705 32.5961C83.7006 33.7237 83.6669 34.8416 83.6669 35.9451L83.6693 35.9403Z" fill="white"/>
    <path d="M104.37 43.643C104.37 44.2983 104.389 45.3512 104.43 46.8016C104.471 48.252 104.491 49.3049 104.491 49.9603C104.491 50.6156 104.267 51.177 103.818 51.6083C103.37 52.0395 102.799 52.2564 102.11 52.2564C101.421 52.2564 100.85 52.0395 100.4 51.6083C99.9515 51.177 99.7274 50.6276 99.7274 49.9603C99.7274 49.2929 99.7081 48.2496 99.6672 46.8016C99.6262 45.3512 99.6069 44.2983 99.6069 43.643C99.6069 42.619 99.6648 41.3348 99.7804 39.7928C99.8961 38.2508 99.9539 36.9666 99.9539 35.9427C99.9539 35.2753 100.178 34.7259 100.628 34.2947C101.077 33.8634 101.648 33.6466 102.337 33.6466C103.026 33.6466 103.597 33.8634 104.045 34.2947C104.493 34.7259 104.72 35.2753 104.72 35.9427C104.72 36.9666 104.662 38.2508 104.546 39.7928C104.43 41.3348 104.373 42.619 104.373 43.643H104.37ZM102.903 30.9866C102.166 30.9866 101.527 30.7385 100.987 30.2446C100.445 29.7506 100.176 29.1459 100.176 28.4327C100.176 27.7196 100.445 27.1148 100.987 26.6209C101.53 26.127 102.168 25.8788 102.903 25.8788C103.638 25.8788 104.276 26.127 104.811 26.6209C105.346 27.1148 105.613 27.7196 105.613 28.4327C105.613 29.1459 105.346 29.7506 104.811 30.2446C104.276 30.7409 103.64 30.9866 102.903 30.9866Z" fill="white"/>
    <path d="M0.276855 40.9324L7.83739 115.658L85.3245 113.914L87.6495 40.9324H0.276855Z" fill="#009DE0"/>
    <path d="M49.9888 44.6693L69.6755 49.6808L63.1149 77.6172L86.8253 66.8161L87.6493 40.9324H55.1448L49.9888 44.6693Z" fill="#339648"/>
    <path d="M111.333 138.983L107.565 124.91C109.331 121.484 110.329 117.595 110.329 113.475C110.329 99.6651 99.1325 88.4713 85.3245 88.4713C71.5166 88.4713 60.3203 99.6675 60.3203 113.475C60.3203 127.283 71.5166 138.48 85.3245 138.48C89.3819 138.48 93.2127 137.514 96.6003 135.798L111.336 138.981L111.333 138.983Z" fill="white"/>
    <path d="M111.333 140C111.261 140 111.188 139.993 111.119 139.976L96.7324 136.868C93.1642 138.612 89.3285 139.496 85.3242 139.496C70.9741 139.496 59.3008 127.823 59.3008 113.473C59.3008 99.123 70.9741 87.4497 85.3242 87.4497C99.6742 87.4497 111.348 99.123 111.348 113.473C111.348 117.533 110.442 121.417 108.651 125.021L112.318 138.718C112.41 139.06 112.318 139.427 112.073 139.684C111.878 139.889 111.61 140 111.335 140H111.333ZM96.5975 134.781C96.6698 134.781 96.742 134.789 96.8119 134.805L109.919 137.636L106.582 125.175C106.517 124.932 106.543 124.672 106.661 124.445C108.42 121.031 109.312 117.342 109.312 113.475C109.312 100.248 98.5515 89.488 85.3242 89.488C72.0968 89.488 61.3367 100.248 61.3367 113.475C61.3367 126.703 72.0968 137.463 85.3242 137.463C89.1285 137.463 92.7666 136.598 96.1397 134.89C96.2843 134.818 96.4409 134.781 96.5999 134.781H96.5975Z" fill="black"/>
    <path d="M29.6299 25.0066L32.2488 51.1023L47.3579 50.2301L50.6996 24.1344L29.6299 25.0066Z" fill="#E04816"/>
    <path d="M24.0115 102.299C23.6983 102.299 23.3875 102.154 23.19 101.882L20.2819 97.9087C19.9494 97.4557 20.0482 96.8172 20.5011 96.4872C20.9541 96.1547 21.5926 96.2535 21.9226 96.7064L24.8307 100.679C25.1632 101.132 25.0644 101.771 24.6115 102.101C24.4308 102.233 24.2187 102.299 24.0115 102.299Z" fill="black"/>
    <path d="M71.3743 56.9594C71.2683 56.9594 71.1598 56.9426 71.0514 56.9064C70.519 56.7281 70.2299 56.1523 70.4081 55.6198L71.7164 51.695C71.8947 51.1625 72.4706 50.8734 73.003 51.0517C73.5355 51.23 73.8246 51.8058 73.6463 52.3383L72.338 56.2631C72.1959 56.6896 71.7983 56.9594 71.3719 56.9594H71.3743Z" fill="black"/>
    <path d="M22.0235 70.3554C21.2164 70.3554 20.6189 69.9289 20.2334 69.076C20.0527 68.6712 19.8744 68.4303 19.6937 68.3484C19.5588 68.2858 19.2046 68.2544 18.6312 68.2544C17.5012 68.2544 16.1929 69.1339 14.7136 70.8927C12.6391 73.3526 11.6031 75.656 11.6031 77.8003C11.6031 78.7785 11.9308 79.6169 12.5861 80.318C13.2415 81.0192 14.0269 81.3685 14.9425 81.3685C15.858 81.3685 16.7326 81.1348 17.6482 80.6674C17.971 80.4963 18.6529 80.0578 19.6961 79.3471C20.3972 78.8797 20.9249 78.646 21.2839 78.646C21.8236 78.646 22.2813 78.8435 22.6572 79.2387C23.0065 79.6073 23.1824 80.0289 23.1824 80.5036C23.1824 81.0336 22.9487 81.4962 22.4813 81.8914C20.0117 83.973 17.4988 85.0163 14.9401 85.0163C12.921 85.0163 11.2152 84.2814 9.82261 82.8069C8.49506 81.3878 7.83008 79.7181 7.83008 77.7979C7.83008 74.791 9.14558 71.7215 11.7766 68.5869C14.0125 65.9294 16.2965 64.6019 18.6312 64.6019C19.0263 64.6019 19.3829 64.6163 19.7009 64.6428C20.019 64.6693 20.3009 64.7103 20.5418 64.7633C20.9369 64.3778 21.4116 64.185 21.9681 64.185C22.8837 64.185 23.4499 64.7103 23.6643 65.7608C23.8161 66.5149 23.8932 67.3943 23.8932 68.399C23.8932 68.8471 23.7631 69.2567 23.5029 69.6254C23.1607 70.1096 22.6692 70.353 22.0211 70.353L22.0235 70.3554Z" fill="#E0AE16"/>
    <path d="M34.803 85.5174C32.1455 85.5174 29.8831 84.7536 28.0159 83.2285C26.0233 81.595 25.0259 79.4796 25.0259 76.8871C25.0259 73.8345 25.9824 71.0517 27.893 68.5387C30.0373 65.7102 32.7406 64.2983 35.998 64.2983C39.2555 64.2983 41.4793 65.0163 43.0406 66.4523C44.6018 67.8882 45.3825 70.047 45.3825 72.9286C45.3825 75.9812 44.503 78.7447 42.7442 81.224C40.7155 84.0887 38.0677 85.5198 34.8006 85.5198L34.803 85.5174Z" fill="white"/>
    <path d="M56.8191 85.5174C54.1616 85.5174 51.8992 84.7536 50.032 83.2285C48.0394 81.595 47.042 79.4796 47.042 76.8871C47.042 73.8345 47.9985 71.0517 49.9091 68.5387C52.0534 65.7102 54.7567 64.2983 58.0141 64.2983C61.2716 64.2983 63.4954 65.0163 65.0567 66.4523C66.618 67.8882 67.3986 70.047 67.3986 72.9286C67.3986 75.9812 66.5191 78.7447 64.7603 81.224C62.7316 84.0887 60.0838 85.5198 56.8167 85.5198L56.8191 85.5174Z" fill="white"/>
    <path d="M82.2813 84.1851C81.2212 84.6525 79.5828 85.0693 77.3662 85.4379C75.3376 85.7776 73.6727 85.9487 72.3717 85.9487C70.1719 85.9487 69.0732 84.9825 69.0732 83.0527C69.0732 83.2044 69.1624 81.7829 69.3431 78.7833C69.5768 74.8874 69.6925 70.5506 69.6925 65.7752C69.6925 65.2644 69.8707 64.8284 70.2249 64.4694C70.5791 64.1104 71.0248 63.9297 71.5645 63.9297C72.1042 63.9297 72.5524 64.1104 72.9113 64.4694C73.2703 64.8284 73.451 65.2644 73.451 65.7752C73.451 70.5602 73.3306 74.9669 73.0872 78.9977C73.0053 79.7157 72.921 80.8144 72.8318 82.2961C74.9593 82.26 77.6891 81.7396 81.0188 80.7349C81.226 80.6722 81.4236 80.6409 81.6115 80.6409C82.1777 80.6409 82.6355 80.8481 82.9848 81.2601C83.298 81.6287 83.4571 82.0407 83.4571 82.4985C83.4571 83.2695 83.0667 83.8309 82.2861 84.1827L82.2813 84.1851Z" fill="#E0AE16"/>
    <path d="M37.1974 74.4898C37.1974 75.1934 36.9733 75.974 36.5468 76.5378C36.1975 76.998 35.6602 77.275 35.0795 77.1931C34.7832 77.1522 34.441 76.9257 34.282 76.6751C33.4869 75.4271 33.6436 73.702 34.6844 72.6395C35.2217 72.0901 36.2071 72.0178 36.6576 72.7382C36.9853 73.2563 37.1997 73.873 37.1997 74.4898H37.1974Z" fill="black"/>
    <path d="M59.5513 75.1235C59.5513 75.827 59.3273 76.6077 58.9008 77.1715C58.5515 77.6316 58.0142 77.9087 57.4335 77.8268C57.1372 77.7858 56.795 77.5593 56.636 77.3088C55.8409 76.0607 55.9976 74.3356 57.0384 73.2731C57.5757 72.7238 58.5611 72.6515 59.0116 73.3719C59.3393 73.8899 59.5537 74.5067 59.5537 75.1235H59.5513Z" fill="black"/>
    <path d="M45.3702 95.8126C45.3341 95.8126 45.2956 95.8126 45.2594 95.8126C40.2962 95.7523 37.7519 91.5528 37.0989 89.341C36.9399 88.8014 37.2483 88.2352 37.788 88.0761C38.3277 87.9171 38.8915 88.2255 39.0505 88.7628C39.1132 88.97 40.5997 93.7213 45.2835 93.7791C45.3124 93.7791 45.3389 93.7791 45.3678 93.7791C50.2925 93.7791 50.8515 88.4616 50.8732 88.2328C50.9262 87.6738 51.4225 87.2618 51.9791 87.3148C52.5381 87.3654 52.95 87.8593 52.8994 88.4159C52.8922 88.4906 52.7236 90.2855 51.7309 92.0805C50.3793 94.5236 48.1819 95.8126 45.3702 95.8126V95.8126Z" fill="white"/>
    <path d="M83.5849 131.391C83.5849 131.391 68.1025 105.443 75.9521 100.863C83.8018 96.2824 86.4183 108.712 86.4183 108.712C86.4183 108.712 89.9071 97.8099 97.1038 102.824C104.301 107.84 83.5849 131.389 83.5849 131.389V131.391Z" fill="#E04816"/>
    <path d="M19.4674 105.917C19.1181 105.917 18.7759 105.737 18.588 105.411L16.5521 101.923C16.2678 101.436 16.4341 100.814 16.9183 100.53C17.405 100.248 18.0266 100.412 18.311 100.896L20.3468 104.385C20.6311 104.872 20.4673 105.493 19.9806 105.778C19.8192 105.872 19.6433 105.917 19.4674 105.917V105.917Z" fill="black"/>
    <path d="M94.47 14.3934C94.058 14.3934 93.6725 14.1429 93.5183 13.7357L89.4466 2.97794C89.2466 2.4527 89.5116 1.86482 90.0392 1.66484C90.5645 1.46487 91.1523 1.7299 91.3523 2.25755L95.4241 13.0153C95.6241 13.5405 95.3591 14.1284 94.8314 14.326C94.7134 14.3717 94.5905 14.391 94.4724 14.391L94.47 14.3934Z" fill="black"/>
    <path d="M116.858 45.5054C116.306 45.5054 115.853 45.0645 115.841 44.5103C115.829 43.9489 116.275 43.4839 116.836 43.4695L129.921 43.1779C130.485 43.1683 130.948 43.6116 130.962 44.173C130.974 44.7344 130.528 45.1994 129.967 45.2139L116.882 45.5054C116.882 45.5054 116.867 45.5054 116.858 45.5054Z" fill="#0B30E0"/>
    </svg>
    