<svg width="140" height="140" viewBox="0 0 140 140" fill="none" xmlns="http://www.w3.org/2000/svg">
    <path d="M105 105C124.33 85.67 124.33 54.3299 105 35C85.67 15.67 54.33 15.67 35 35C15.67 54.33 15.67 85.67 35 105C54.33 124.33 85.67 124.33 105 105Z" fill="#237BE5"/>
    <path d="M105 105C124.33 85.67 124.33 54.3299 105 35C85.67 15.67 54.33 15.67 35 35C15.67 54.33 15.67 85.67 35 105C54.33 124.33 85.67 124.33 105 105Z" fill="#009DE0"/>
    <path d="M38.6492 82.9518C36.2433 83.6795 33.9352 84.1764 31.7302 84.4425C30.9563 84.5077 29.4004 84.6842 27.0623 84.972C26.5328 85.0372 25.9246 84.9395 25.2403 84.6734C24.4446 84.3638 24.0265 83.9673 23.983 83.4813C23.7386 80.8771 23.6191 78.1182 23.6191 75.2045C23.6191 71.2753 23.8961 67.1152 24.4474 62.7215C24.5343 62.1024 24.8791 61.7847 25.4738 61.7603C29.6013 61.5838 33.4546 61.6842 37.0308 62.059C37.3621 62.8763 37.5277 63.4955 37.5277 63.9136C37.5277 64.0467 37.4734 64.5979 37.3621 65.5701C36.17 65.9231 34.6358 66.1104 32.7594 66.1322C30.6169 66.1756 29.1397 66.2652 28.3223 66.3983C28.211 68.0085 28.1567 68.9155 28.1567 69.1137C28.1567 70.018 28.268 70.6154 28.488 70.9005C29.2836 70.9222 30.5626 70.9114 32.3276 70.8679C34.0275 70.8245 35.2631 70.8897 36.037 71.0662C36.1917 71.6853 36.2678 72.3234 36.2678 72.986C36.2678 73.6486 36.189 74.2568 36.037 74.8081C33.9406 74.9411 31.2795 75.1176 28.0562 75.3376C28.0562 75.0715 28.0345 75.8345 27.991 77.6213C27.9693 78.7917 28.0128 79.4977 28.1241 79.7393C29.2266 79.7393 30.8396 79.6633 32.9576 79.5085L37.859 79.1447C38.4103 80.2037 38.6764 81.4745 38.6547 82.9518H38.6492Z" fill="white"/>
    <path d="M55.4036 84.0135C55.1592 84.4996 54.2115 84.9286 52.5551 85.3033C52.0039 85.4364 51.6617 85.4255 51.5286 85.2708C51.4852 85.2056 51.3956 84.896 51.2625 84.3448C51.0181 83.3509 50.676 81.518 50.2361 78.8487L50.1709 78.4522L49.807 78.5527C49.1227 78.6858 47.8872 78.9845 46.0977 79.4461C45.4786 79.6226 45.0713 80.1087 44.873 80.9016C44.5635 82.1371 44.1887 83.484 43.7461 84.9422C42.3341 85.0291 40.9655 84.744 39.6403 84.0814C39.5752 84.0488 39.6078 83.9483 39.6078 83.9483C40.0042 82.7562 41.2859 78.6287 43.4501 71.5631C44.7753 67.3025 45.9103 64.1336 46.8608 62.059C47.2355 61.9259 47.6564 61.8607 48.118 61.8607C48.6258 61.8607 49.1879 61.9395 49.807 62.0916C52.0147 67.1478 53.8802 74.4551 55.4036 84.0135V84.0135ZM49.2449 75.2045L49.2123 74.9058C49.1689 74.5746 48.7589 72.7199 47.9877 69.3419L47.689 68.0493L47.2925 69.3419C46.8282 70.8652 46.3421 72.8855 45.8343 75.4028L45.7338 75.8997L46.2634 75.7992C46.7711 75.7123 47.6754 75.5467 48.9788 75.3023L49.2449 75.2018V75.2045Z" fill="white"/>
    <path d="M78.9797 78.9791C79.0449 79.6633 78.605 80.6681 77.6546 81.9932C76.7938 83.207 76.1746 83.9022 75.7999 84.0787C71.6289 83.1527 67.1783 81.1324 62.4561 78.0178C62.2117 78.9003 62.1031 80.0598 62.1248 81.4936C62.1465 83.6361 62.1465 84.8146 62.1248 85.0372C60.911 85.3685 59.9715 85.5342 59.3116 85.5342C58.6517 85.5342 58.1304 85.412 57.6878 85.1703C57.5981 83.913 57.5547 82.6314 57.5547 81.3279C57.5547 76.25 58.3367 70.4335 59.9063 63.8784C61.1201 62.9062 62.6761 62.1459 64.5742 61.5946C66.3637 61.0651 68.0961 60.799 69.7716 60.799C73.8122 60.799 75.8325 62.355 75.8325 65.4669C75.8325 66.2625 75.7212 66.9577 75.5012 67.5524C74.2657 70.9304 71.8245 73.7328 68.183 75.9622C68.9542 76.5351 70.7654 77.1868 73.6139 77.9146C76.1964 78.5772 77.9858 78.9302 78.977 78.9736L78.9797 78.9791ZM70.5699 66.7595C70.5699 66.2299 70.206 65.8226 69.4783 65.5348C68.9053 65.3148 68.3079 65.2035 67.6915 65.2035C67.3385 65.2035 67.0289 65.2361 66.7655 65.304C65.5517 65.5918 64.7344 65.9448 64.3162 66.363C64.118 66.5612 63.8844 67.2564 63.621 68.4485C63.3115 69.885 63.1241 71.4844 63.0589 73.2494C64.824 72.7851 66.4478 72.003 67.925 70.8978C69.6901 69.5727 70.5726 68.1932 70.5726 66.7595H70.5699Z" fill="white"/>
    <path d="M96.5619 61.1982C96.6054 61.8825 96.6271 62.5885 96.6271 63.3162C96.6271 64.044 96.6054 64.7283 96.5619 65.4343C95.6794 65.456 94.376 65.5131 92.6544 65.6C92.3665 65.6217 91.9484 65.6651 91.3971 65.733C91.2858 65.8226 91.188 66.3738 91.0984 67.3894C90.7237 71.2318 90.0828 77.0809 89.1786 84.9395C88.9342 85.1594 88.4834 85.2382 87.8209 85.1703L86.1644 85.0046C86.0992 84.9395 86.0314 84.8933 85.9662 84.8716C85.8331 83.2152 85.768 81.1514 85.768 78.6804C85.768 74.0885 85.8793 70.1375 86.0992 66.8273L86.1644 65.8335L83.9133 65.7683C83.5603 65.7683 82.952 65.7574 82.0912 65.7357C81.1408 65.6923 80.7009 65.3718 80.7661 64.7744L81.1951 61.2634C83.7992 61.1303 86.5364 61.0651 89.4067 61.0651C91.7012 61.0651 94.0854 61.1086 96.5592 61.1982H96.5619Z" fill="white"/>
    <path d="M114.544 63.3488C114.058 66.8138 113.661 70.8544 113.352 75.4679L112.524 87.6196C111.861 87.7527 111.155 87.8179 110.406 87.8179C109.656 87.8179 108.904 87.7527 108.087 87.6196C108.043 83.8669 108.187 80.3802 108.518 77.1569C107.856 77.0456 107.182 76.9913 106.498 76.9913C105.724 76.9913 104.931 77.0565 104.114 77.1896C104.092 77.2792 103.997 77.3226 103.831 77.3226C103.666 77.3226 103.571 77.3661 103.549 77.4557L102.292 84.5756C101.96 84.6625 101.564 84.7087 101.1 84.7087C100.239 84.7087 99.2776 84.5539 98.2186 84.2443C98.1751 81.5289 98.3299 78.7808 98.6829 76.0002C99.1011 72.6004 100.307 67.4465 102.292 60.5356C102.357 60.3374 102.954 60.1392 104.081 59.9409C105.053 59.7644 105.759 59.6748 106.199 59.6748C106.729 59.6748 106.973 59.7644 106.927 59.9409C106.354 62.8763 105.692 66.5965 104.939 71.0988C105.865 71.1422 106.661 71.1639 107.324 71.1639C108.383 71.1639 109.132 71.1096 109.575 70.9983C109.906 68.5924 110.425 65.657 111.131 62.1893C112.19 61.6163 113.327 61.3177 114.541 61.2959C114.674 61.6924 114.674 62.3767 114.541 63.3488H114.544Z" fill="white"/>
    <path d="M108.507 46.1816C110.147 47.9168 112.637 49.7633 115.478 50.4585C115.331 50.1163 115.182 49.7742 115.024 49.432C108.208 34.5133 94.9107 24.6046 79.992 21.5171C78.7646 23.6569 77.825 26.6574 79.8345 29.3023C83.4406 34.0544 89.3386 33.5629 89.8301 36.1833C90.3216 38.8037 87.044 47.6534 92.942 49.4565C98.84 51.2596 105.721 43.2299 108.507 46.1789V46.1816Z" fill="#0B30E0"/>
    <path d="M80.378 109.349C76.0033 106.003 70.0592 112.7 68.7748 109.734C67.4904 106.769 71.1481 94.5088 62.4097 94.4219C53.6714 94.335 51.165 103.931 48.2214 105.053C45.2752 106.174 41.851 99.1495 36.3223 98.4679C33.6801 98.1421 32.192 99.4672 31.3584 100.939C42.853 115.317 61.5707 122.166 79.6584 118.554C81.3365 114.818 82.716 111.138 80.3807 109.351L80.378 109.349Z" fill="#0BE0AD"/>
    <path d="M111.454 97.0504C109.04 95.7063 104.41 93.7077 100.641 95.5542C96.8367 97.417 98.2189 105.409 99.3377 109.873C104.198 106.305 108.269 101.941 111.454 97.0504Z" fill="#0B30E0"/>
    <path d="M53.5382 49.9018C53.5898 50.0675 53.6522 50.2331 53.7282 50.3961C55.5585 54.3199 60.3105 54.5697 63.4089 52.1991C65.1794 50.8441 66.7299 49.0736 68.8534 48.3948C69.9423 48.0472 71.1045 48.0173 72.2287 47.8055C74.5966 47.3602 77.6108 44.5334 77.2768 41.9184C77.0758 40.3326 75.585 39.3007 74.4201 38.2063C72.5681 36.4739 71.558 33.8915 69.4046 32.4686C67.2703 31.0592 64.5765 31.4829 62.8332 33.3457C61.5271 34.7441 60.9405 36.7156 60.9677 38.6273C60.9785 39.4419 61.0926 40.2647 60.9405 41.0657C60.506 43.325 57.1633 44.0039 55.5123 45.1525C53.9699 46.2251 52.9815 48.0689 53.5409 49.8937L53.5382 49.9018Z" fill="#0BE0AD"/>
    <path d="M25.1592 49.0437C28.1136 49.9236 33.1725 50.6784 36.6863 47.1646C40.4771 43.3766 39.3013 35.8221 38.3591 31.9227C32.6647 36.6504 28.2005 42.5266 25.1592 49.0437V49.0437Z" fill="#0B30E0"/>
    <path d="M77.7438 61.2742C77.9502 61.0027 78.3331 60.9456 78.6019 61.1466C78.868 61.353 78.9441 61.7223 78.7485 62.0047C78.5557 62.2817 78.1566 62.3604 77.8823 62.1459C77.6026 61.9368 77.5402 61.5458 77.7438 61.2742V61.2742Z" fill="white"/>
    <path d="M56.7101 59.0883C56.8377 58.9742 56.9952 58.9199 57.15 58.9281C57.2287 58.9308 57.3048 58.9498 57.3754 58.9824C57.4487 59.0122 57.5166 59.0584 57.5763 59.1181C57.8126 59.3571 57.8071 59.7454 57.5654 59.9844C57.3238 60.2233 56.9273 60.2152 56.6829 59.9681C56.6232 59.9056 56.577 59.835 56.5471 59.759C56.52 59.683 56.5064 59.6015 56.5091 59.52C56.5146 59.3598 56.5824 59.205 56.7074 59.0883H56.7101Z" fill="white"/>
    <path d="M76.5547 43.1159C76.8426 42.9367 77.2255 43.0181 77.4101 43.3005C77.5921 43.583 77.5133 43.9658 77.2309 44.1559C76.9485 44.3487 76.5683 44.2645 76.3782 43.9713C76.1854 43.678 76.2669 43.2951 76.5547 43.1159V43.1159Z" fill="white"/>
    <path d="M39.2794 58.3198C39.5971 58.1949 39.9528 58.3496 40.075 58.6619C40.1918 58.9769 40.0642 59.3299 39.7492 59.4684C39.4396 59.6042 39.0595 59.4603 38.9373 59.1344C38.8096 58.8086 38.9617 58.4447 39.2767 58.3225L39.2794 58.3198Z" fill="white"/>
    <path d="M42.1471 31.233C42.3155 31.2004 42.4784 31.2412 42.6061 31.3281C42.6712 31.3715 42.7255 31.4286 42.769 31.4937C42.8124 31.5589 42.845 31.6349 42.864 31.7164C42.9401 32.0422 42.7337 32.3708 42.4024 32.4469C42.0711 32.5229 41.7371 32.3084 41.6584 31.9689C41.6366 31.8848 41.6393 31.7979 41.6584 31.7191C41.6747 31.6404 41.7072 31.5643 41.7534 31.4964C41.843 31.3634 41.9815 31.2656 42.1471 31.233V31.233Z" fill="white"/>
    <path d="M97.4906 62.3604C97.6753 62.0916 97.955 61.9232 98.2483 61.8635C98.3949 61.8336 98.547 61.8309 98.6936 61.8581C98.7669 61.8716 98.8402 61.8907 98.9108 61.9205C98.9461 61.9341 98.9814 61.9531 99.014 61.9694C99.0493 61.9857 99.0846 62.0047 99.1172 62.0237C99.3888 62.1866 99.5653 62.4473 99.6359 62.7406C99.7065 63.0312 99.6739 63.357 99.511 63.6394C99.348 63.9218 99.0873 64.1065 98.7886 64.1771C98.4899 64.245 98.1532 64.1988 97.86 64.0196C97.8219 63.9979 97.7866 63.9734 97.754 63.949C97.7215 63.9218 97.6889 63.8947 97.6617 63.8648C97.602 63.8078 97.5504 63.7453 97.5069 63.6775C97.4173 63.5444 97.3522 63.3977 97.3223 63.2484C97.2571 62.947 97.3114 62.6293 97.4988 62.3604H97.4906Z" fill="white"/>
    <path d="M74.8737 46.8985C75.0122 46.8144 75.1615 46.7628 75.3136 46.7383C75.4656 46.7139 75.6204 46.7193 75.7698 46.7492C76.0658 46.8116 76.3319 46.98 76.5057 47.2461C76.5491 47.3113 76.5844 47.3819 76.6116 47.4525C76.6387 47.5258 76.6604 47.5964 76.6767 47.6697C76.7093 47.8164 76.712 47.9657 76.6849 48.1124C76.6333 48.4056 76.4731 48.6881 76.2124 48.8781C75.949 49.0709 75.6313 49.1334 75.3271 49.0791C75.1751 49.0492 75.0257 48.9922 74.89 48.9053C74.8221 48.8618 74.7569 48.8129 74.6999 48.7532C74.6429 48.6935 74.5913 48.6283 74.5451 48.5577C74.3577 48.2699 74.298 47.9358 74.3577 47.6371C74.3876 47.4878 74.4473 47.3439 74.5342 47.219C74.6211 47.0913 74.7379 46.9827 74.8764 46.8958L74.8737 46.8985Z" fill="white"/>
    <path d="M70.8437 35.4284C71.1668 35.3877 71.4764 35.48 71.7153 35.6592C71.8348 35.7489 71.9353 35.8602 72.014 35.9878C72.0928 36.1154 72.1552 36.2567 72.1824 36.4142C72.2394 36.7264 72.1607 37.0305 71.9869 37.2804C71.8104 37.5302 71.5606 37.7176 71.2401 37.7854C70.9251 37.8533 70.5966 37.7855 70.3495 37.6062C70.0996 37.4297 69.915 37.1473 69.8525 36.8079C69.8227 36.6395 69.8227 36.4739 69.8607 36.3164C69.9014 36.1616 69.9693 36.015 70.0589 35.8901C70.2408 35.6402 70.5178 35.4665 70.841 35.4284H70.8437Z" fill="white"/>
    <path d="M91.6553 35.461C92.0382 35.1678 92.508 35.0564 92.9451 35.0944C93.1651 35.1135 93.3742 35.1732 93.567 35.2709C93.7652 35.3632 93.9444 35.4909 94.0965 35.6592C94.1725 35.7434 94.235 35.833 94.2893 35.9308C94.3436 36.0285 94.3952 36.1209 94.4305 36.2213C94.5065 36.4223 94.5418 36.6395 94.5364 36.8595C94.531 37.0794 94.4875 37.3048 94.4115 37.5112C94.3327 37.7203 94.2105 37.9239 94.0449 38.0977C93.8793 38.2742 93.6865 38.4073 93.4747 38.4942C93.2601 38.5838 93.0348 38.6218 92.8039 38.6137C92.5731 38.6055 92.3369 38.5485 92.1142 38.448C92.0029 38.3964 91.8888 38.3367 91.7911 38.2579C91.6906 38.1792 91.5956 38.0923 91.5087 37.9918C91.3322 37.7936 91.1991 37.5736 91.1149 37.3428C91.0389 37.1066 91.009 36.8676 91.0253 36.6368C91.0579 36.1725 91.2778 35.7489 91.6607 35.4583L91.6553 35.461Z" fill="white"/>
    </svg>
    