<svg width="227" height="202" viewBox="0 0 227 202" fill="none" xmlns="http://www.w3.org/2000/svg">
    <path d="M21.5 85.0714C26.1919 49.0714 52.1502 -4.4286 142.65 1.57141C185.057 4.38292 223.655 62.7014 219 105.571C209.5 193.071 149.15 200.071 135.65 200.071C80.3487 200.071 12.9634 150.571 21.5 85.0714Z" fill="#CCEBF9"/>
    <path d="M28.4997 105.571C33.1916 69.5714 56.9997 3.5714 147.5 9.5714C189.907 12.3829 226 44.4495 226 87.5714C226 175.571 149.089 198.789 135.65 200.071C77.9997 205.571 19.9631 171.071 28.4997 105.571Z" stroke="#003F5A" stroke-width="2"/>
    <path d="M124.199 116.038L126.384 170.571H115.022L117.207 116.038H124.199Z" fill="black"/>
    <path d="M146.608 107.311C160.591 93.3274 160.591 70.6558 146.608 56.6723C132.624 42.6889 109.953 42.6889 95.9691 56.6723C81.9857 70.6557 81.9857 93.3274 95.9691 107.311C109.953 121.294 132.624 121.294 146.608 107.311Z" fill="#339648"/>
    <path d="M141.915 102.618C153.307 91.2264 153.307 72.7565 141.915 61.3646C130.523 49.9727 112.053 49.9727 100.662 61.3646C89.2696 72.7565 89.2696 91.2264 100.662 102.618C112.053 114.01 130.523 114.01 141.915 102.618Z" fill="white"/>
    <path d="M129.869 90.572C134.608 85.8331 134.608 78.1497 129.869 73.4108C125.13 68.6718 117.447 68.6718 112.708 73.4108C107.969 78.1497 107.969 85.8331 112.708 90.572C117.447 95.3109 125.13 95.3109 129.869 90.572Z" fill="#237BE5"/>
    <path d="M121.291 98.0466C111.11 98.0466 102.393 90.1796 98.1024 85.4901C96.2757 83.4929 96.2757 80.484 98.1024 78.4868C102.393 73.7973 111.11 65.9303 121.291 65.9303C131.472 65.9303 140.19 73.7973 144.48 78.4868C146.307 80.4821 146.307 83.4929 144.48 85.4901C140.192 90.1796 131.472 98.0466 121.291 98.0466ZM121.291 67.5228C111.719 67.5228 103.39 75.0657 99.2753 79.5622C98.0088 80.9467 98.0088 83.0339 99.2753 84.4184C103.39 88.9149 111.719 96.4578 121.291 96.4578C130.863 96.4578 139.193 88.9149 143.307 84.4184C144.574 83.0339 144.574 80.9467 143.307 79.5622C139.193 75.0638 130.863 67.5228 121.291 67.5228Z" fill="black"/>
    <path d="M121.22 67.5228C120.782 67.5228 120.424 67.1668 120.424 66.7265V59.1649C120.424 58.7265 120.78 58.3686 121.22 58.3686C121.66 58.3686 122.016 58.7246 122.016 59.1649V66.7265C122.014 67.1668 121.658 67.5228 121.22 67.5228Z" fill="black"/>
    <path d="M110.83 69.964C110.553 69.964 110.285 69.8198 110.137 69.5612L106.551 63.2436C106.333 62.8614 106.468 62.3762 106.85 62.1589C107.233 61.9415 107.718 62.0764 107.935 62.4586L111.521 68.7762C111.738 69.1584 111.604 69.6436 111.221 69.861C111.098 69.9303 110.963 69.964 110.83 69.964Z" fill="black"/>
    <path d="M103.309 75.3618C103.096 75.3618 102.884 75.2775 102.728 75.1088L97.9941 70.0428C97.6943 69.7224 97.7111 69.2184 98.0315 68.9187C98.3519 68.6189 98.8559 68.6358 99.1556 68.9561L103.89 74.0222C104.19 74.3426 104.173 74.8465 103.853 75.1463C103.699 75.2924 103.504 75.3618 103.309 75.3618Z" fill="black"/>
    <path d="M131.609 69.9639C131.476 69.9639 131.341 69.9302 131.217 69.8609C130.835 69.6435 130.702 69.1583 130.918 68.7761L134.503 62.4585C134.721 62.0763 135.206 61.9433 135.588 62.1588C135.97 62.3761 136.103 62.8613 135.888 63.2435L132.302 69.5611C132.156 69.8197 131.886 69.9639 131.609 69.9639Z" fill="black"/>
    <path d="M139.379 75.3055C139.189 75.3055 139 75.238 138.848 75.1031C138.521 74.8109 138.492 74.3069 138.787 73.9809L143.272 68.971C143.564 68.6432 144.068 68.6169 144.394 68.9092C144.722 69.2015 144.748 69.7055 144.456 70.0315L139.971 75.0413C139.815 75.2156 139.598 75.3055 139.379 75.3055Z" fill="black"/>
    <path d="M121.22 105.61C120.782 105.61 120.424 105.254 120.424 104.814V97.2521C120.424 96.8137 120.78 96.4559 121.22 96.4559C121.66 96.4559 122.016 96.8118 122.016 97.2521V104.814C122.014 105.254 121.658 105.61 121.22 105.61Z" fill="black"/>
    <path d="M135.197 101.925C134.92 101.925 134.652 101.78 134.504 101.522L130.918 95.2043C130.701 94.8221 130.835 94.3369 131.218 94.1195C131.6 93.9022 132.085 94.0371 132.302 94.4193L135.888 100.737C136.106 101.119 135.971 101.604 135.589 101.822C135.465 101.891 135.33 101.925 135.197 101.925Z" fill="black"/>
    <path d="M143.864 95.2755C143.652 95.2755 143.439 95.1912 143.283 95.0226L138.549 89.9547C138.249 89.6343 138.266 89.1303 138.586 88.8305C138.907 88.5308 139.411 88.5476 139.71 88.868L144.445 93.9341C144.745 94.2544 144.728 94.7584 144.407 95.0582C144.254 95.2043 144.059 95.2755 143.864 95.2755Z" fill="black"/>
    <path d="M107.242 101.925C107.109 101.925 106.974 101.891 106.85 101.822C106.468 101.604 106.335 101.119 106.55 100.737L110.136 94.4193C110.354 94.0371 110.839 93.9041 111.221 94.1196C111.603 94.3369 111.736 94.8221 111.521 95.2043L107.935 101.522C107.787 101.78 107.519 101.925 107.242 101.925Z" fill="black"/>
    <path d="M98.5747 95.2755C98.3854 95.2755 98.1962 95.2081 98.0444 95.0732C97.7166 94.7809 97.6903 94.2769 97.9826 93.9509L102.468 88.9411C102.76 88.6132 103.264 88.587 103.59 88.8792C103.918 89.1715 103.946 89.6755 103.652 90.0015L99.1667 95.0114C99.0093 95.1856 98.792 95.2755 98.5747 95.2755Z" fill="black"/>
    <path d="M85.8893 34.3622L80.0566 37.8925L87.8972 50.8464L93.7298 47.3162L85.8893 34.3622Z" fill="#E0AE16"/>
    <path d="M102.386 30.5714L102.045 41.4793L108.86 41.6921L109.2 30.7841L102.386 30.5714Z" fill="#E0AE16"/>
    <path d="M72.6178 53.2967L70.8452 59.88L79.708 62.2664L81.4806 55.6831L72.6178 53.2967Z" fill="#E0AE16"/>
    <path d="M181.132 83.3359L170.628 60.664L148.141 64.2351L167.09 55.5393L150.894 38.4191L170.425 45.4159L183.468 36.7661L180.068 51.7659L202.028 56.7386L179.773 58.947L181.132 83.3359Z" fill="#E0AE16"/>
    </svg>
    