<svg width="230" height="198" viewBox="0 0 230 198" fill="none" xmlns="http://www.w3.org/2000/svg">
    <path d="M1.48596 98.0714C-8.11404 28.0714 58.486 3.90474 92.986 0.571411C118.153 0.571411 177.286 8.97141 212.486 42.5714C256.486 84.5714 208.639 150.571 164.639 184.071C120.639 217.571 13.486 185.571 1.48596 98.0714Z" fill="#CCEBF9"/>
    <path d="M5.9998 89.5714C-3.6002 19.5714 49.4999 4.90474 83.9999 1.57141C116.5 1.57141 174.3 15.4714 209.5 49.0714C253.5 91.0714 195 145.071 151 178.571C107 212.071 17.9998 177.071 5.9998 89.5714Z" stroke="#003F5A" stroke-width="2"/>
    <path d="M149.081 101.262C149.081 101.262 152.27 95.0651 150.145 89.0433C147.628 81.9072 142.494 79.5146 142.494 79.5146C142.494 79.5146 141.288 51.0346 141.17 38.6842C140.972 17.5664 120.851 18.1639 120.451 34.898C120.14 47.9568 116.665 81.3165 116.665 81.3165C116.665 81.3165 112.231 53.6048 110.291 42.0711C106.904 21.9501 86.5288 23.9873 87.7793 41.0744C88.9744 57.4094 91.7915 83.9075 91.7915 83.9075C82.2282 98.7843 84.6184 109.94 87.5416 139.16L153.322 138.881C153.322 138.881 156.511 129.528 157.161 114.446C157.597 104.342 149.081 101.262 149.081 101.262Z" fill="#F9DAD0"/>
    <path d="M111.686 82.4932C111.178 82.4932 110.747 82.101 110.71 81.5842C110.67 81.0443 111.076 80.576 111.616 80.5367L122.536 79.7431C123.076 79.7038 123.545 80.1099 123.584 80.6498C123.623 81.1897 123.217 81.658 122.677 81.6973L111.757 82.4909C111.734 82.4932 111.709 82.4932 111.686 82.4932Z" fill="black"/>
    <path d="M116.522 81.6488C115.989 81.6488 115.553 81.2219 115.544 80.689L115.403 73.6936C115.392 73.1537 115.823 72.7061 116.363 72.6945C116.905 72.683 117.35 73.1144 117.362 73.6543L117.503 80.6498C117.514 81.1896 117.083 81.6372 116.543 81.6488C116.534 81.6488 116.527 81.6488 116.522 81.6488Z" fill="black"/>
    <path d="M125.036 89.6663C124.683 89.6663 124.343 89.4748 124.168 89.1425C123.917 88.6626 124.101 88.072 124.579 87.8205L142.04 78.6471C142.52 78.3956 143.11 78.5802 143.362 79.0578C143.613 79.5377 143.429 80.1283 142.951 80.3798L125.49 89.5532C125.345 89.6294 125.188 89.6663 125.036 89.6663Z" fill="#2F3131"/>
    <path d="M127.013 119.104C122.86 119.104 119.859 113.945 119.72 113.703C119.453 113.232 119.614 112.634 120.085 112.367C120.556 112.099 121.153 112.261 121.421 112.731C121.476 112.828 124.503 117.987 127.881 117.023C131.129 116.095 143.999 104.686 148.683 100.367C149.079 100 149.7 100.026 150.067 100.422C150.434 100.819 150.408 101.44 150.012 101.807C148.254 103.429 132.703 117.683 128.421 118.905C127.939 119.042 127.47 119.104 127.013 119.104Z" fill="#2F3131"/>
    <path d="M139.878 126.914C133.106 126.914 128.849 118.562 128.669 118.202C128.427 117.717 128.623 117.129 129.108 116.887C129.592 116.644 130.178 116.841 130.42 117.325C130.46 117.403 134.41 125.126 140.074 124.953C145.89 124.77 152.002 116.474 152.062 116.391C152.38 115.955 152.994 115.858 153.43 116.176C153.866 116.494 153.963 117.106 153.647 117.544C153.375 117.918 146.912 126.699 140.136 126.911C140.048 126.911 139.961 126.914 139.878 126.914Z" fill="#2F3131"/>
    <path fill-rule="evenodd" clip-rule="evenodd" d="M133.817 107.406L122.189 112.203C124.833 115.35 127.987 114.584 130.901 112.681C132.756 111.469 133.999 109.554 133.817 107.406Z" fill="white"/>
    <path fill-rule="evenodd" clip-rule="evenodd" d="M138.837 112.884C138.122 113.336 137.467 113.91 136.922 114.566C136.311 115.299 135.789 116.128 135.538 117.05C135.229 118.19 135.413 119.341 136.085 120.313C138.66 124.032 141.837 123.342 144.755 121.436C146.811 120.094 148.061 117.828 147.254 115.373C146.054 111.728 141.804 111.006 138.837 112.884Z" fill="white"/>
    <path fill-rule="evenodd" clip-rule="evenodd" d="M133.554 90.2131C133.604 89.3756 133.514 88.5958 133.309 87.8782C129.336 87.9359 123.448 89.5717 117.283 91.2906C118.762 96.7725 122.957 97.4323 127.419 96.5325C130.649 95.8819 133.339 93.6785 133.554 90.2131Z" fill="white"/>
    <path d="M122.175 139.661C122.117 139.661 122.057 139.656 122 139.645C121.467 139.548 121.114 139.038 121.211 138.505C122.814 129.687 122.223 123.409 121.444 119.699C120.604 115.689 119.369 113.73 119.358 113.712C119.194 113.458 119.157 113.14 119.259 112.856C119.36 112.572 119.586 112.348 119.872 112.251C119.937 112.231 126.473 110.043 132.567 106.712C137.94 103.775 144.079 99.3473 142.817 94.9314C141.975 91.9805 140.679 90.0563 138.854 89.0503C135.49 87.193 130.278 88.4827 124.311 90.2247C114.859 92.9818 90.6909 100.113 90.4464 100.185C89.9272 100.337 89.3827 100.042 89.2305 99.5227C89.0782 99.0036 89.3735 98.4591 89.8926 98.3068C90.1349 98.2353 114.307 91.1037 123.762 88.3443C130.384 86.4132 135.771 85.1119 139.8 87.3361C142.102 88.6073 143.706 90.9168 144.7 94.3938C145.999 98.9413 142.227 103.669 133.485 108.442C128.672 111.07 123.728 112.957 121.582 113.728C122.892 116.49 125.735 124.563 123.135 138.856C123.052 139.329 122.639 139.661 122.175 139.661Z" fill="#2F3131"/>
    <path d="M99.9632 105.651C100.155 105.849 100.15 106.165 99.9563 106.354C99.7578 106.539 99.4533 106.553 99.2503 106.361C99.0518 106.172 99.0426 105.842 99.2479 105.651C99.451 105.452 99.7717 105.452 99.9632 105.651Z" fill="white"/>
    <path d="M95.9581 93.1248C96.0342 93.2402 96.055 93.374 96.0296 93.4986C96.0181 93.5609 95.9927 93.6208 95.9558 93.6739C95.9212 93.7293 95.8773 93.7777 95.8219 93.817C95.6005 93.9762 95.289 93.9231 95.1298 93.697C94.9683 93.4732 95.026 93.1571 95.2567 92.9933C95.3144 92.9541 95.3767 92.9264 95.4413 92.9102C95.5059 92.8987 95.5728 92.8987 95.6374 92.9125C95.7643 92.9379 95.8796 93.0094 95.9581 93.1248Z" fill="white"/>
    <path d="M114.648 107.021C114.755 107.275 114.642 107.57 114.392 107.681C114.143 107.792 113.846 107.679 113.73 107.429C113.613 107.18 113.728 106.885 113.986 106.77C114.245 106.654 114.542 106.767 114.648 107.021Z" fill="white"/>
    <path d="M107.247 75.2394C107.305 75.5093 107.139 75.7747 106.871 75.8324C106.603 75.8854 106.338 75.7378 106.269 75.4678C106.2 75.2025 106.363 74.9164 106.64 74.861C106.917 74.801 107.189 74.9695 107.247 75.2394Z" fill="white"/>
    <path d="M128.561 80.9982C128.565 81.1366 128.512 81.2635 128.427 81.3535C128.383 81.3996 128.332 81.4365 128.272 81.4642C128.215 81.4896 128.15 81.5081 128.081 81.5104C127.809 81.5288 127.573 81.3212 127.555 81.0489C127.536 80.7744 127.751 80.5344 128.032 80.516C128.104 80.5113 128.171 80.5229 128.233 80.546C128.295 80.569 128.351 80.6059 128.399 80.6498C128.496 80.7375 128.556 80.862 128.561 80.9982Z" fill="white"/>
    <path d="M96.5669 121.319C96.7584 121.501 96.8576 121.746 96.8668 121.988C96.8714 122.11 96.8553 122.23 96.8137 122.343C96.793 122.401 96.7676 122.456 96.7376 122.509C96.7214 122.535 96.703 122.562 96.6845 122.585C96.6661 122.611 96.6476 122.636 96.6268 122.662C96.4607 122.858 96.23 122.966 95.9854 122.985C95.7432 123.005 95.4871 122.936 95.2817 122.77C95.0764 122.604 94.961 122.371 94.9449 122.122C94.9287 121.872 95.0095 121.609 95.1895 121.397C95.2125 121.37 95.2356 121.346 95.261 121.321C95.2864 121.298 95.3117 121.277 95.3394 121.259C95.3925 121.22 95.4502 121.185 95.5102 121.157C95.6278 121.102 95.7524 121.07 95.877 121.063C96.1285 121.051 96.3754 121.137 96.5669 121.319Z" fill="white"/>
    <path d="M111.837 105.191C111.887 105.314 111.908 105.438 111.908 105.563C111.908 105.69 111.885 105.812 111.841 105.925C111.754 106.154 111.585 106.347 111.35 106.449C111.292 106.474 111.232 106.495 111.17 106.509C111.108 106.52 111.048 106.53 110.988 106.532C110.868 106.539 110.745 106.52 110.632 106.481C110.404 106.403 110.199 106.239 110.079 106.004C109.959 105.768 109.947 105.505 110.033 105.268C110.074 105.15 110.141 105.037 110.226 104.94C110.27 104.889 110.319 104.845 110.372 104.808C110.427 104.771 110.485 104.737 110.549 104.709C110.803 104.596 111.078 104.592 111.311 104.677C111.426 104.721 111.532 104.785 111.622 104.871C111.712 104.963 111.786 105.069 111.837 105.191Z" fill="white"/>
    <path d="M121.533 103.433C121.524 103.696 121.411 103.934 121.238 104.102C121.15 104.188 121.049 104.255 120.938 104.299C120.827 104.345 120.705 104.377 120.576 104.379C120.32 104.384 120.087 104.282 119.907 104.112C119.729 103.939 119.611 103.715 119.597 103.449C119.584 103.189 119.681 102.933 119.854 102.76C120.027 102.582 120.276 102.469 120.555 102.464C120.693 102.462 120.827 102.483 120.947 102.534C121.067 102.584 121.173 102.658 121.263 102.748C121.441 102.926 121.542 103.17 121.533 103.433Z" fill="white"/>
    <path d="M118.845 120.087C119.029 120.431 119.059 120.823 118.972 121.167C118.928 121.34 118.854 121.501 118.753 121.642C118.653 121.787 118.529 121.916 118.374 122.016C118.298 122.064 118.217 122.106 118.132 122.136C118.049 122.166 117.966 122.196 117.88 122.212C117.71 122.246 117.532 122.246 117.354 122.214C117.179 122.182 117.006 122.119 116.847 122.029C116.69 121.939 116.542 121.817 116.425 121.663C116.305 121.508 116.224 121.335 116.18 121.155C116.136 120.973 116.134 120.786 116.171 120.604C116.208 120.419 116.282 120.239 116.392 120.073C116.448 119.99 116.51 119.907 116.586 119.838C116.66 119.768 116.745 119.701 116.835 119.644C117.018 119.526 117.211 119.448 117.405 119.411C117.604 119.381 117.8 119.388 117.982 119.429C118.351 119.512 118.66 119.743 118.845 120.087Z" fill="white"/>
    <path d="M159.906 137.942H81.5884V162.571H159.906V137.942Z" fill="#009DE0"/>
    <path d="M88.3396 150.366C87.802 150.366 87.366 149.933 87.3614 149.395C87.3568 148.855 87.7905 148.412 88.3327 148.408L133.623 148.008C134.17 148.008 134.606 148.442 134.61 148.98C134.615 149.52 134.181 149.963 133.639 149.967L88.3489 150.366C88.3465 150.366 88.3419 150.366 88.3396 150.366Z" fill="white"/>
    <path d="M103.747 157.537C103.207 157.537 102.769 157.099 102.769 156.559V142.48C102.769 141.94 103.207 141.5 103.747 141.5C104.287 141.5 104.727 141.938 104.727 142.48V156.559C104.727 157.099 104.287 157.537 103.747 157.537Z" fill="white"/>
    <path d="M125.928 156.607C125.388 156.607 124.95 156.169 124.95 155.627V142.61C124.95 142.07 125.388 141.631 125.928 141.631C126.468 141.631 126.909 142.07 126.909 142.61V155.627C126.906 156.169 126.468 156.607 125.928 156.607Z" fill="white"/>
    <path d="M146.864 155.246C143.588 155.246 140.921 152.581 140.921 149.303C140.921 146.027 143.586 143.359 146.864 143.359C150.14 143.359 152.808 146.024 152.808 149.303C152.808 152.579 150.14 155.246 146.864 155.246ZM146.864 145.318C144.668 145.318 142.88 147.106 142.88 149.303C142.88 151.499 144.668 153.287 146.864 153.287C149.061 153.287 150.849 151.499 150.849 149.303C150.849 147.106 149.061 145.318 146.864 145.318Z" fill="#FFC950"/>
    <path d="M84.6203 78.511C84.4888 78.511 84.355 78.4856 84.2281 78.428L67.2263 70.9896C66.7303 70.7727 66.5042 70.1959 66.721 69.6998C66.9379 69.2038 67.5147 68.9777 68.0108 69.1946L85.0125 76.633C85.5086 76.8498 85.7347 77.4266 85.5178 77.9227C85.3586 78.2918 84.9987 78.511 84.6203 78.511Z" fill="#0B30E0"/>
    <path d="M114.372 37.3368C113.855 37.3368 113.421 36.9307 113.393 36.407L112.863 26.0477C112.835 25.5078 113.25 25.0463 113.79 25.0187C114.328 24.991 114.791 25.4063 114.819 25.9461L115.35 36.3055C115.377 36.8453 114.962 37.3068 114.422 37.3345C114.406 37.3368 114.388 37.3368 114.372 37.3368Z" fill="#0B30E0"/>
    <path d="M149.436 73.7305C149.148 73.7305 148.864 73.6036 148.67 73.3637C148.334 72.9414 148.401 72.3254 148.823 71.9863L158.121 64.5479C158.543 64.211 159.159 64.2779 159.498 64.7001C159.835 65.1224 159.768 65.7384 159.346 66.0775L150.048 73.5159C149.868 73.659 149.651 73.7305 149.436 73.7305Z" fill="#0B30E0"/>
    </svg>
    