<svg width="94" height="140" viewBox="0 0 94 140" fill="none" xmlns="http://www.w3.org/2000/svg">
    <path d="M82.809 78.6908C82.809 78.6908 85.9976 72.4937 83.8726 66.4719C81.3555 59.3358 76.222 56.9432 76.222 56.9432C76.222 56.9432 75.0153 28.4632 74.8977 16.1127C74.6992 -5.00503 54.5782 -4.40747 54.179 12.3266C53.8676 25.3854 50.3929 58.7451 50.3929 58.7451C50.3929 58.7451 45.9585 31.0334 44.0181 19.4997C40.6312 -0.62136 20.2563 1.4159 21.5068 18.503C22.7019 34.838 25.519 61.3361 25.519 61.3361C15.9557 76.2129 18.346 87.3682 21.2692 116.589L87.0497 116.31C87.0497 116.31 90.2382 106.956 90.8888 91.8742C91.3249 81.7709 82.809 78.6908 82.809 78.6908Z" fill="#F9DAD0"/>
    <path d="M45.4131 59.9218C44.9055 59.9218 44.4741 59.5296 44.4372 59.0128C44.398 58.4729 44.804 58.0046 45.3439 57.9653L56.2639 57.1717C56.8038 57.1324 57.2721 57.5385 57.3113 58.0784C57.3506 58.6183 56.9445 59.0866 56.4046 59.1259L45.4847 59.9195C45.4616 59.9218 45.4362 59.9218 45.4131 59.9218Z" fill="black"/>
    <path d="M50.2496 59.0774C49.7166 59.0774 49.2806 58.6505 49.2713 58.1176L49.1306 51.1221C49.1191 50.5823 49.5505 50.1347 50.0904 50.1231C50.6326 50.1116 51.0779 50.543 51.0894 51.0829L51.2302 58.0783C51.2417 58.6182 50.8102 59.0658 50.2704 59.0774C50.2611 59.0774 50.2542 59.0774 50.2496 59.0774Z" fill="black"/>
    <path d="M58.7632 67.0949C58.4102 67.0949 58.071 66.9034 57.8957 66.5711C57.6442 66.0912 57.8288 65.5006 58.3064 65.2491L75.7672 56.0757C76.2471 55.8242 76.8378 56.0088 77.0892 56.4864C77.3407 56.9663 77.1562 57.5569 76.6786 57.8084L59.2177 66.9818C59.0723 67.0579 58.9155 67.0949 58.7632 67.0949Z" fill="#2F3131"/>
    <path d="M60.741 96.5324C56.588 96.5324 53.5864 91.3735 53.4479 91.1313C53.1803 90.6606 53.3418 90.0631 53.8125 89.7954C54.2831 89.5278 54.8807 89.6893 55.1483 90.16C55.2037 90.2569 58.2307 95.4158 61.6085 94.4514C64.857 93.5239 77.7266 82.1148 82.4102 77.7957C82.807 77.4288 83.4277 77.4542 83.7945 77.8511C84.1613 78.2479 84.136 78.8685 83.7391 79.2354C81.981 80.8573 66.4305 95.1112 62.1484 96.334C61.6662 96.4701 61.1978 96.5324 60.741 96.5324Z" fill="#2F3131"/>
    <path d="M73.6052 104.342C66.8335 104.342 62.5767 95.9903 62.3968 95.6304C62.1545 95.1458 62.3506 94.5575 62.8352 94.3152C63.3197 94.073 63.9057 94.2691 64.148 94.7536C64.1872 94.8321 68.1371 102.554 73.8013 102.381C79.6177 102.199 85.7295 93.9023 85.7895 93.8192C86.1079 93.3831 86.7216 93.2862 87.1576 93.6046C87.5937 93.923 87.6906 94.5344 87.3745 94.9728C87.1023 95.3466 80.6398 104.128 73.8636 104.34C73.7759 104.34 73.6882 104.342 73.6052 104.342Z" fill="#2F3131"/>
    <path fill-rule="evenodd" clip-rule="evenodd" d="M67.5448 84.835L55.9165 89.6316C58.5606 92.7786 61.7145 92.0126 64.6285 90.1092C66.4835 88.8979 67.727 86.983 67.5448 84.835Z" fill="white"/>
    <path fill-rule="evenodd" clip-rule="evenodd" d="M72.5648 90.3122C71.8496 90.7644 71.1943 91.3389 70.6498 91.9942C70.0384 92.7279 69.517 93.5562 69.2655 94.479C68.9564 95.6188 69.1409 96.7701 69.8123 97.7414C72.3872 101.461 75.5642 100.771 78.4828 98.865C80.5385 97.5222 81.789 95.2566 80.9815 92.8017C79.7817 89.1563 75.5319 88.4342 72.5648 90.3122Z" fill="white"/>
    <path fill-rule="evenodd" clip-rule="evenodd" d="M67.2811 67.6417C67.3319 66.8042 67.2419 66.0244 67.0365 65.3068C63.0635 65.3645 57.1756 67.0003 51.0107 68.7192C52.4897 74.2011 56.6841 74.8609 61.1463 73.9611C64.3763 73.3105 67.0665 71.1071 67.2811 67.6417Z" fill="white"/>
    <path d="M55.9025 117.09C55.8448 117.09 55.7848 117.085 55.7271 117.073C55.1942 116.977 54.8412 116.467 54.9381 115.934C56.5416 107.116 55.9509 100.838 55.1711 97.1277C54.3313 93.1178 53.0969 91.159 53.0854 91.1405C52.9216 90.8867 52.8847 90.5683 52.9862 90.2846C53.0877 90.0008 53.3138 89.777 53.5999 89.6801C53.6645 89.6593 60.2008 87.4721 66.2941 84.1405C71.6675 81.2034 77.807 76.7759 76.545 72.3599C75.7028 69.409 74.4062 67.4848 72.5812 66.4789C69.2173 64.6216 64.0054 65.9113 58.0389 67.6533C48.5864 70.4104 24.4185 77.5419 24.1739 77.6134C23.6548 77.7657 23.1103 77.4704 22.958 76.9513C22.8057 76.4321 23.1011 75.8877 23.6202 75.7354C23.8624 75.6639 48.0349 68.5323 57.4898 65.7729C64.1115 63.8418 69.4988 62.5405 73.5272 64.7647C75.8297 66.0359 77.4332 68.3454 78.4276 71.8224C79.7266 76.3699 75.9543 81.0973 67.2124 85.8709C62.3995 88.4988 57.4552 90.3861 55.3095 91.1567C56.62 93.9184 59.4625 101.991 56.8623 116.284C56.7792 116.757 56.3662 117.09 55.9025 117.09Z" fill="#2F3131"/>
    <path d="M33.6907 83.0792C33.8822 83.2776 33.8776 83.5937 33.6838 83.7829C33.4854 83.9674 33.1808 83.9813 32.9778 83.7898C32.7794 83.6006 32.7701 83.2707 32.9755 83.0792C33.1785 82.8807 33.4992 82.8807 33.6907 83.0792Z" fill="white"/>
    <path d="M29.6856 70.5534C29.7618 70.6687 29.7825 70.8026 29.7571 70.9272C29.7456 70.9894 29.7202 71.0494 29.6833 71.1025C29.6487 71.1579 29.6049 71.2063 29.5495 71.2455C29.328 71.4047 29.0165 71.3517 28.8573 71.1256C28.6958 70.9018 28.7535 70.5857 28.9842 70.4219C29.0419 70.3827 29.1042 70.355 29.1688 70.3388C29.2334 70.3273 29.3003 70.3273 29.3649 70.3411C29.4918 70.3665 29.6072 70.438 29.6856 70.5534Z" fill="white"/>
    <path d="M48.376 84.4497C48.4822 84.7035 48.3691 84.9988 48.1199 85.1095C47.8707 85.2203 47.5731 85.1072 47.4577 84.858C47.3401 84.6089 47.4555 84.3135 47.7139 84.1982C47.9723 84.0828 48.2699 84.1959 48.376 84.4497Z" fill="white"/>
    <path d="M40.9746 52.668C41.0322 52.9379 40.8661 53.2033 40.5985 53.2609C40.3308 53.314 40.0655 53.1664 39.9963 52.8964C39.9271 52.6311 40.0909 52.345 40.3678 52.2896C40.6446 52.2296 40.9169 52.3981 40.9746 52.668Z" fill="white"/>
    <path d="M62.2883 58.4268C62.2929 58.5652 62.2398 58.6921 62.1545 58.7821C62.1106 58.8282 62.0599 58.8651 61.9999 58.8928C61.9422 58.9182 61.8776 58.9366 61.8084 58.9389C61.5361 58.9574 61.3008 58.7498 61.2824 58.4775C61.2639 58.203 61.4785 57.963 61.7599 57.9445C61.8315 57.9399 61.8984 57.9515 61.9607 57.9745C62.023 57.9976 62.0783 58.0345 62.1268 58.0784C62.2237 58.166 62.2837 58.2906 62.2883 58.4268Z" fill="white"/>
    <path d="M30.2944 98.7474C30.4859 98.9296 30.5851 99.1742 30.5943 99.4164C30.5989 99.5387 30.5828 99.6587 30.5413 99.7718C30.5205 99.8294 30.4951 99.8848 30.4651 99.9379C30.449 99.9632 30.4305 99.9909 30.4121 100.014C30.3936 100.039 30.3751 100.065 30.3544 100.09C30.1883 100.286 29.9575 100.395 29.713 100.413C29.4707 100.434 29.2146 100.365 29.0093 100.199C28.8039 100.032 28.6886 99.7994 28.6724 99.5503C28.6563 99.3011 28.737 99.0381 28.917 98.8258C28.9401 98.7981 28.9631 98.775 28.9885 98.7497C29.0139 98.7266 29.0393 98.7058 29.067 98.6874C29.12 98.6481 29.1777 98.6135 29.2377 98.5859C29.3554 98.5305 29.48 98.4982 29.6045 98.4912C29.856 98.4797 30.1029 98.5651 30.2944 98.7474Z" fill="white"/>
    <path d="M45.5643 82.62C45.615 82.7423 45.6358 82.8669 45.6358 82.9914C45.6358 83.1183 45.6127 83.2406 45.5689 83.3537C45.4812 83.5821 45.3128 83.7759 45.0775 83.8774C45.0198 83.9028 44.9598 83.9236 44.8975 83.9374C44.8352 83.9489 44.7752 83.9582 44.7152 83.9605C44.5953 83.9674 44.473 83.9489 44.3599 83.9097C44.1315 83.8313 43.9262 83.6675 43.8062 83.4321C43.6862 83.1968 43.6747 82.9338 43.76 82.6961C43.8016 82.5785 43.8685 82.4654 43.9538 82.3685C43.9977 82.3178 44.0461 82.2739 44.0992 82.237C44.1546 82.2001 44.2123 82.1655 44.2769 82.1378C44.5306 82.0247 44.8052 82.0201 45.0382 82.1055C45.1536 82.1493 45.2597 82.2139 45.3497 82.2993C45.4397 82.3916 45.5135 82.4977 45.5643 82.62Z" fill="white"/>
    <path d="M55.2608 80.8619C55.2515 81.1249 55.1385 81.3626 54.9655 81.531C54.8778 81.6164 54.7763 81.6833 54.6655 81.7271C54.5548 81.7733 54.4325 81.8056 54.3033 81.8079C54.0472 81.8125 53.8142 81.711 53.6342 81.5402C53.4565 81.3672 53.3389 81.1434 53.325 80.8781C53.3112 80.6174 53.4081 80.3612 53.5811 80.1882C53.7542 80.0106 54.0033 79.8975 54.2825 79.8929C54.4209 79.8906 54.5548 79.9113 54.6747 79.9621C54.7947 80.0129 54.9008 80.0867 54.9908 80.1767C55.1685 80.3543 55.27 80.5989 55.2608 80.8619Z" fill="white"/>
    <path d="M52.5724 97.5153C52.757 97.8591 52.787 98.2513 52.6993 98.5951C52.6555 98.7681 52.5816 98.9296 52.4801 99.0704C52.3809 99.2157 52.2563 99.3449 52.1017 99.4441C52.0256 99.4926 51.9449 99.5341 51.8595 99.5641C51.7764 99.5941 51.6934 99.6241 51.608 99.6403C51.4373 99.6749 51.2596 99.6749 51.082 99.6426C50.9066 99.6103 50.7336 99.548 50.5744 99.458C50.4175 99.368 50.2698 99.2457 50.1522 99.0912C50.0322 98.9366 49.9515 98.7635 49.9076 98.5836C49.8638 98.4013 49.8615 98.2144 49.8984 98.0321C49.9353 97.8476 50.0091 97.6676 50.1199 97.5015C50.1752 97.4184 50.2375 97.3354 50.3137 97.2662C50.3875 97.1969 50.4729 97.13 50.5629 97.0724C50.7451 96.9547 50.9389 96.8762 51.1327 96.8393C51.3312 96.8093 51.5273 96.8163 51.7095 96.8578C52.0787 96.9408 52.3878 97.1716 52.5724 97.5153Z" fill="white"/>
    <path d="M93.6338 115.371H15.3159V140H93.6338V115.371Z" fill="#009DE0"/>
    <path d="M22.0672 127.795C21.5296 127.795 21.0935 127.361 21.0889 126.824C21.0843 126.284 21.518 125.841 22.0602 125.836L67.3505 125.437C67.8973 125.437 68.3334 125.871 68.338 126.408C68.3426 126.948 67.9089 127.391 67.3667 127.396L22.0764 127.795C22.0741 127.795 22.0695 127.795 22.0672 127.795Z" fill="white"/>
    <path d="M37.4743 134.966C36.9345 134.966 36.4961 134.527 36.4961 133.987V119.909C36.4961 119.369 36.9345 118.928 37.4743 118.928C38.0142 118.928 38.4549 119.367 38.4549 119.909V133.987C38.4549 134.527 38.0142 134.966 37.4743 134.966Z" fill="white"/>
    <path d="M59.6555 134.036C59.1156 134.036 58.6772 133.598 58.6772 133.055V120.038C58.6772 119.498 59.1156 119.06 59.6555 119.06C60.1954 119.06 60.6361 119.498 60.6361 120.038V133.055C60.6338 133.598 60.1954 134.036 59.6555 134.036Z" fill="white"/>
    <path d="M80.5918 132.675C77.3156 132.675 74.6484 130.01 74.6484 126.731C74.6484 123.455 77.3133 120.788 80.5918 120.788C83.868 120.788 86.5351 123.453 86.5351 126.731C86.5351 130.008 83.868 132.675 80.5918 132.675ZM80.5918 122.747C78.3953 122.747 76.6072 124.535 76.6072 126.731C76.6072 128.928 78.3953 130.716 80.5918 130.716C82.7882 130.716 84.5763 128.928 84.5763 126.731C84.5763 124.535 82.7882 122.747 80.5918 122.747Z" fill="#FFC950"/>
    <path d="M18.3478 55.9396C18.2163 55.9396 18.0825 55.9142 17.9556 55.8565L0.953862 48.4181C0.457814 48.2013 0.231709 47.6245 0.448585 47.1284C0.665462 46.6324 1.24227 46.4063 1.73831 46.6231L18.7401 54.0615C19.2361 54.2784 19.4622 54.8552 19.2453 55.3513C19.0861 55.7204 18.7262 55.9396 18.3478 55.9396Z" fill="#0B30E0"/>
    <path d="M48.0991 14.7654C47.5823 14.7654 47.1485 14.3593 47.1208 13.8356L46.5902 3.47627C46.5625 2.93639 46.9778 2.47495 47.5177 2.44726C48.0552 2.41957 48.519 2.83487 48.5467 3.37475L49.0773 13.7341C49.105 14.274 48.6897 14.7354 48.1498 14.7631C48.1337 14.7654 48.1152 14.7654 48.0991 14.7654Z" fill="#0B30E0"/>
    <path d="M83.164 51.1591C82.8756 51.1591 82.5918 51.0322 82.398 50.7922C82.0612 50.37 82.1281 49.754 82.5503 49.4149L91.8483 41.9765C92.2705 41.6396 92.8865 41.7065 93.2257 42.1287C93.5626 42.5509 93.4956 43.167 93.0734 43.5061L83.7754 50.9445C83.5954 51.0876 83.3786 51.1591 83.164 51.1591Z" fill="#0B30E0"/>
    </svg>
    