<svg width="178" height="140" viewBox="0 0 178 140" fill="none" xmlns="http://www.w3.org/2000/svg">
    <path d="M121.356 43.1958L97.61 49.8282L110.952 30.0478L149.758 6.24519L177.986 0L138.046 41.816L121.356 43.1958Z" fill="white"/>
    <path d="M93.2771 2.31574L110.952 30.0478L177.986 0L93.2771 2.31574Z" fill="#009DE0"/>
    <path d="M120.808 42.4857L143.84 76.6123L177.986 0L120.808 42.4857Z" fill="#0BE0AD"/>
    <path d="M97.6097 51.5428C97.763 51.5428 97.9163 51.5227 98.0696 51.4783L121.816 44.8458C122.728 44.5917 123.26 43.6476 123.006 42.7359C122.752 41.8241 121.808 41.2916 120.896 41.5457L101.632 46.9276L112.371 31.004C112.9 30.2213 112.694 29.1563 111.907 28.6278C111.121 28.0993 110.06 28.305 109.531 29.0917L96.1897 48.8721C95.7862 49.4692 95.8023 50.2478 96.2219 50.8328C96.5486 51.2846 97.0691 51.5428 97.6097 51.5428Z" fill="black"/>
    <path d="M1.72566 140C2.45991 140 3.13771 139.524 3.36363 138.782C4.89265 133.731 7.0349 128.643 9.72984 123.661C10.1777 122.83 9.87106 121.789 9.03595 121.341C8.20487 120.893 7.16401 121.2 6.7162 122.035C3.91233 127.219 1.68126 132.52 0.0876913 137.793C-0.186644 138.697 0.325749 139.653 1.22944 139.927C1.39485 139.976 1.56429 140 1.72566 140Z" fill="black"/>
    <path d="M15.4746 113.091C16.0031 113.091 16.5275 112.845 16.8624 112.385C19.7994 108.334 23.1681 104.272 26.8716 100.31C27.5171 99.6202 27.4808 98.535 26.791 97.8895C26.1011 97.244 25.0158 97.2803 24.3703 97.9701C20.57 102.037 17.1126 106.208 14.0908 110.376C13.5341 111.142 13.7075 112.211 14.47 112.768C14.7766 112.982 15.1276 113.091 15.4746 113.091Z" fill="black"/>
    <path d="M33.0482 93.4274C33.4677 93.4274 33.8873 93.2741 34.2181 92.9675C37.8813 89.5424 41.8672 86.1293 46.071 82.8211C46.8133 82.2361 46.9425 81.159 46.3575 80.4167C45.7725 79.6743 44.6953 79.5453 43.9529 80.1302C39.6725 83.4989 35.6099 86.9765 31.8782 90.4703C31.1883 91.1158 31.152 92.201 31.7975 92.8909C32.1364 93.2459 32.5923 93.4274 33.0482 93.4274Z" fill="black"/>
    <path d="M55.0516 75.753C55.3905 75.753 55.7335 75.6522 56.028 75.4464C60.1672 72.5578 64.5202 69.7297 68.962 67.0388C69.7729 66.5507 70.0312 65.4936 69.539 64.6868C69.0468 63.8799 67.9978 63.6177 67.1869 64.1099C62.6806 66.8411 58.267 69.7095 54.0672 72.6385C53.2926 73.1791 53.103 74.2482 53.6436 75.0228C53.9785 75.4988 54.511 75.753 55.0516 75.753Z" fill="black"/>
    <path d="M78.9875 61.0478C79.2618 61.0478 79.5402 60.9832 79.7984 60.842C86.7375 57.1022 91.264 55.1173 91.3084 55.0971C92.1758 54.7179 92.5711 53.7093 92.1919 52.8419C91.8127 51.9745 90.8041 51.5792 89.9368 51.9584C89.7471 52.0391 85.2367 54.024 78.1725 57.8243C77.3415 58.2721 77.0268 59.313 77.4786 60.1441C77.7893 60.721 78.3783 61.0478 78.9875 61.0478Z" fill="black"/>
    </svg>
    