<svg width="209" height="200" viewBox="0 0 209 200" fill="none" xmlns="http://www.w3.org/2000/svg">
    <path d="M0.462891 106.571C0.46305 34.8802 65.9629 3.40474 100.463 0.0714111C125.63 0.0714111 159.463 0.0714149 187.463 43.0714C251.315 141.13 148.463 199.071 109.963 199.071C54.6616 199.071 0.462738 175.071 0.462891 106.571Z" fill="#CCEBF9"/>
    <path d="M10.0002 99.5714C18.5002 42.5714 64.4999 19.9047 98.9999 16.5714C124.167 16.5714 161.5 23.0714 182.5 52.0714C224.82 110.514 188.053 177.649 155.5 188.571C79.5004 214.071 -0.102955 167.322 10.0002 99.5714Z" stroke="#003F5A" stroke-width="2"/>
    <path d="M151.805 87.7672L128.059 94.3997L141.401 74.6193L180.207 50.8166L208.436 44.5714L168.495 86.3874L151.805 87.7672Z" fill="white"/>
    <path d="M123.726 46.8871L141.401 74.6193L208.436 44.5714L123.726 46.8871Z" fill="#009DE0"/>
    <path d="M151.257 87.0571L174.289 121.184L208.436 44.5714L151.257 87.0571Z" fill="#0BE0AD"/>
    <path d="M128.059 96.1143C128.212 96.1143 128.366 96.0941 128.519 96.0497L152.265 89.4173C153.177 89.1631 153.709 88.2191 153.455 87.3073C153.201 86.3955 152.257 85.863 151.345 86.1172L132.081 91.499L142.821 75.5754C143.349 74.7927 143.143 73.7277 142.357 73.1992C141.57 72.6707 140.509 72.8764 139.98 73.6631L126.639 93.4435C126.235 94.0406 126.252 94.8192 126.671 95.4042C126.998 95.8561 127.518 96.1143 128.059 96.1143Z" fill="black"/>
    <path d="M32.1749 184.571C32.9091 184.571 33.5869 184.095 33.8128 183.353C35.3419 178.302 37.4841 173.215 40.1791 168.232C40.6269 167.401 40.3203 166.36 39.4852 165.913C38.6541 165.465 37.6132 165.771 37.1654 166.606C34.3615 171.791 32.1305 177.092 30.5369 182.365C30.2626 183.268 30.775 184.224 31.6787 184.499C31.8441 184.547 32.0135 184.571 32.1749 184.571Z" fill="black"/>
    <path d="M45.9238 157.662C46.4523 157.662 46.9767 157.416 47.3116 156.956C50.2486 152.906 53.6173 148.843 57.3208 144.881C57.9663 144.192 57.93 143.106 57.2402 142.461C56.5503 141.815 55.4651 141.852 54.8196 142.542C51.0192 146.608 47.5618 150.78 44.54 154.947C43.9833 155.714 44.1568 156.783 44.9193 157.34C45.2259 157.553 45.5768 157.662 45.9238 157.662Z" fill="black"/>
    <path d="M63.4974 137.999C63.917 137.999 64.3365 137.846 64.6673 137.539C68.3305 134.114 72.3164 130.701 76.5202 127.393C77.2625 126.808 77.3917 125.73 76.8067 124.988C76.2217 124.246 75.1445 124.117 74.4022 124.702C70.1217 128.07 66.0591 131.548 62.3274 135.042C61.6375 135.687 61.6012 136.772 62.2467 137.462C62.5856 137.817 63.0415 137.999 63.4974 137.999Z" fill="black"/>
    <path d="M85.5008 120.324C85.8397 120.324 86.1827 120.224 86.4772 120.018C90.6164 117.129 94.9694 114.301 99.4112 111.61C100.222 111.122 100.48 110.065 99.9882 109.258C99.496 108.451 98.4471 108.189 97.6362 108.681C93.1298 111.413 88.7162 114.281 84.5165 117.21C83.7419 117.75 83.5522 118.82 84.0928 119.594C84.4277 120.07 84.9602 120.324 85.5008 120.324Z" fill="black"/>
    <path d="M109.437 105.619C109.711 105.619 109.989 105.555 110.248 105.413C117.187 101.674 121.713 99.6887 121.758 99.6685C122.625 99.2893 123.02 98.2807 122.641 97.4133C122.262 96.5459 121.253 96.1506 120.386 96.5298C120.196 96.6105 115.686 98.5954 108.622 102.396C107.791 102.844 107.476 103.884 107.928 104.715C108.239 105.292 108.828 105.619 109.437 105.619Z" fill="black"/>
    </svg>
    