<svg
  width="26"
  height="26"
  viewBox="0 0 26 26"
  fill="none"
  xmlns="http://www.w3.org/2000/svg"
>
    <path
    d="M10.8333 18.4167C11.8292 18.4167 12.8153 18.2205 13.7353 17.8394C14.6554 17.4583 15.4914 16.8997 16.1956 16.1956C16.8997 15.4914 17.4583 14.6554 17.8394 13.7353C18.2205 12.8153 18.4167 11.8292 18.4167 10.8333C18.4167 9.83748 18.2205 8.85137 17.8394 7.93132C17.4583 7.01126 16.8997 6.17528 16.1956 5.47111C15.4914 4.76693 14.6554 4.20835 13.7353 3.82725C12.8153 3.44615 11.8292 3.25 10.8333 3.25C8.82211 3.25 6.89326 4.04896 5.47111 5.47111C4.04896 6.89326 3.25 8.82211 3.25 10.8333C3.25 12.8446 4.04896 14.7734 5.47111 16.1956C6.89326 17.6177 8.82211 18.4167 10.8333 18.4167V18.4167Z"
    stroke="#003F5A"
    stroke-width="1.5"
    stroke-linecap="round"
    stroke-linejoin="round"
  />
    <path
    d="M22.75 22.75L16.25 16.25"
    stroke="#003F5A"
    stroke-width="1.5"
    stroke-linecap="round"
    stroke-linejoin="round"
  />
    </svg>
