<svg
  width="28"
  height="28"
  viewBox="0 0 28 28"
  fill="none"
  xmlns="http://www.w3.org/2000/svg"
>
    <path
    d="M14 24.5C15.3789 24.5 16.7443 24.2284 18.0182 23.7007C19.2921 23.1731 20.4496 22.3996 21.4246 21.4246C22.3996 20.4496 23.1731 19.2921 23.7007 18.0182C24.2284 16.7443 24.5 15.3789 24.5 14C24.5 12.6211 24.2284 11.2557 23.7007 9.98182C23.1731 8.70791 22.3996 7.55039 21.4246 6.57538C20.4496 5.60036 19.2921 4.82694 18.0182 4.29926C16.7443 3.77159 15.3789 3.5 14 3.5C11.2152 3.5 8.54451 4.60625 6.57538 6.57538C4.60625 8.54451 3.5 11.2152 3.5 14C3.5 16.7848 4.60625 19.4555 6.57538 21.4246C8.54451 23.3938 11.2152 24.5 14 24.5V24.5Z"
    stroke="#003F5A"
    stroke-width="1.5"
    stroke-linecap="round"
    stroke-linejoin="round"
  />
    <path
    d="M14 15.1667C14.9283 15.1667 15.8185 14.7979 16.4749 14.1416C17.1313 13.4852 17.5 12.5949 17.5 11.6667C17.5 10.7384 17.1313 9.84819 16.4749 9.19181C15.8185 8.53544 14.9283 8.16669 14 8.16669C13.0717 8.16669 12.1815 8.53544 11.5251 9.19181C10.8687 9.84819 10.5 10.7384 10.5 11.6667C10.5 12.5949 10.8687 13.4852 11.5251 14.1416C12.1815 14.7979 13.0717 15.1667 14 15.1667V15.1667Z"
    stroke="#003F5A"
    stroke-width="1.5"
    stroke-linecap="round"
    stroke-linejoin="round"
  />
    <path
    d="M7.19531 21.9905C7.48407 21.0295 8.07494 20.1871 8.88027 19.5883C9.68559 18.9896 10.6625 18.6664 11.666 18.6667H16.3326C17.3374 18.6663 18.3155 18.9903 19.1214 19.5904C19.9273 20.1906 20.518 21.0348 20.8056 21.9975"
    stroke="#003F5A"
    stroke-width="1.5"
    stroke-linecap="round"
    stroke-linejoin="round"
  />
    </svg>
